<?xml version="1.0" encoding="UTF-8" standalone="no"?>
<!-- Created with Inkscape (http://www.inkscape.org/) -->

<svg
   version="1.1"
   id="svg1"
   width="1516"
   height="733.33331"
   viewBox="0 0 1516 733.33331"
   sodipodi:docname=".trashed-1749387956-Logo_daredevil_born_again_2025.svg"
   inkscape:version="1.3.2 (091e20e, 2023-11-25, custom)"
   xmlns:inkscape="http://www.inkscape.org/namespaces/inkscape"
   xmlns:sodipodi="http://sodipodi.sourceforge.net/DTD/sodipodi-0.dtd"
   xmlns="http://www.w3.org/2000/svg"
   xmlns:svg="http://www.w3.org/2000/svg">
  <defs
     id="defs1" />
  <sodipodi:namedview
     id="namedview1"
     pagecolor="#ffffff"
     bordercolor="#000000"
     borderopacity="0.25"
     inkscape:showpageshadow="2"
     inkscape:pageopacity="0.0"
     inkscape:pagecheckerboard="0"
     inkscape:deskcolor="#d1d1d1"
     inkscape:zoom="0.45720935"
     inkscape:cx="757.85851"
     inkscape:cy="365.25937"
     inkscape:window-width="1350"
     inkscape:window-height="728"
     inkscape:window-x="0"
     inkscape:window-y="0"
     inkscape:window-maximized="0"
     inkscape:current-layer="g1" />
  <g
     inkscape:groupmode="layer"
     inkscape:label="Image"
     id="g1">
    <path
       style="fill:#000000"
       d="m 323.09891,734.45498 c -11.79257,-3.6873 -23.63525,-14.3185 -28.79183,-25.8464 -4.33852,-9.6991 -3.93097,-25.06729 0.95151,-35.87998 6.52507,-14.45034 19.26953,-24.12181 35.79986,-27.16764 21.63459,-3.98633 44.03459,9.27054 51.20066,30.30179 2.93736,8.62066 1.86226,25.91783 -2.08664,33.57163 -3.68791,7.1481 -11.36695,15.7392 -17.49837,19.5768 -11.21341,7.0184 -27.41296,9.2467 -39.57519,5.4438 z m 31.3704,-17.1251 c 8.84428,-5.8529 12.7454,-12.9659 13.31678,-24.2807 0.41518,-8.22176 -10e-4,-10.52184 -2.96542,-16.37093 -7.76677,-15.32699 -25.07912,-21.52626 -40.31003,-14.43435 -23.43568,10.91225 -22.73109,45.76038 1.15048,56.90218 8.3689,3.9045 21.40568,3.0826 28.80819,-1.8162 z m 239.48239,-10.2497 -30.61836,-29.29411 -0.35985,27.96081 -0.35985,27.9608 h -6.97348 -6.97348 l 0.29671,-44.33331 c 0.20036,-29.93756 0.75215,-44.33335 1.69928,-44.33335 0.77141,0 15.25453,13.46202 32.18471,29.91559 l 30.78215,29.91557 -0.32113,-15.91557 c -0.17663,-8.75358 -0.24327,-21.76559 -0.1481,-28.91559 l 0.17304,-13 h 6.66667 6.66667 v 44.66666 c 0,24.5667 -0.47174,44.6667 -1.04831,44.6667 -0.57657,0 -14.82657,-13.1824 -31.66667,-29.2942 z m 314.78496,27.1694 c -19.03335,-6.0865 -29.19397,-20.8328 -29.32875,-42.5654 -0.0681,-10.97605 0.30723,-12.79948 4.30776,-20.92984 8.27303,-16.8134 22.52985,-25.39948 42.28434,-25.46546 12.51916,-0.0418 21.76678,3.29993 28.57755,10.32686 l 4.26219,4.39746 -5.27841,4.18058 c -6.04994,4.79163 -7.20275,5.02492 -9.7314,1.96927 -3.08324,-3.72582 -12.14109,-7.06193 -19.25751,-7.09275 -8.69066,-0.0376 -20.04681,5.50856 -24.24054,11.83877 -9.33478,14.09038 -6.10984,36.29711 6.60923,45.51081 16.58722,12.0157 43.69854,5.1663 43.72057,-11.0455 l 0.005,-3.6667 h -10.07306 -10.07305 l 0.40639,-6.3333 0.40638,-6.33336 16.843,-0.372 16.84299,-0.372 0.66873,4.37196 c 0.8523,5.5721 -1.23432,18.9604 -3.69741,23.7235 -3.46198,6.6947 -8.92887,12.0745 -15.83099,15.5787 -8.75918,4.4471 -27.14143,5.5662 -37.423,2.2784 z m 381.26324,0.5527 c -0.7333,-0.7912 -14.3923,-14.1112 -30.3533,-29.6 l -29.02,-28.16126 0.02,28.33336 0.02,28.3333 h -7.3513 -7.3513 l 0.3513,-44.33333 c 0.2556,-32.25883 0.7679,-44.33333 1.8811,-44.33333 0.8414,0 15.0791,13.09544 31.6393,29.10099 l 30.1095,29.10097 0.3607,-27.76764 0.3607,-27.76765 7,-0.40302 7,-0.40301 v 44.73632 c 0,45.2957 -0.2812,47.8964 -4.6667,43.1643 z m -845.01825,-0.7337 -5.01837,-0.5241 0.3517,-42.9184 0.3517,-42.91839 h 18.23897 c 16.34281,0 18.6214,0.28579 21.91761,2.74905 7.5531,5.64443 9.17675,9.26311 9.17675,20.45251 0,9.22692 -0.3948,10.85696 -3.66947,15.15027 -2.0182,2.646 -5.7682,5.56986 -8.33333,6.49736 -2.56513,0.9276 -4.66387,2.1766 -4.66387,2.7755 0,0.599 6.05266,9.1506 13.45035,19.0035 7.3977,9.8529 13.1563,18.3923 12.7969,18.9765 -0.3594,0.5841 -4.24657,0.862 -8.63816,0.6175 l -7.9847,-0.4444 -13.81219,-18.6386 -13.8122,-18.6385 -0.37277,18.362 c -0.34582,17.0342 -1.22267,21.1646 -4.29389,20.2261 -0.36667,-0.1121 -2.92493,-0.4396 -5.68503,-0.7279 z m 26.72169,-53.10317 c 2.28686,-1.60178 2.96334,-3.39432 2.96334,-7.85229 0,-8.28192 -3.12676,-11.58486 -11.75143,-12.41358 l -6.91524,-0.66447 v 11.50298 11.50297 H 462.37 c 3.60739,0 7.65517,-0.90017 9.33334,-2.07561 z m 537.71476,52.07557 c 0.1892,-2.8489 40.7313,-87.99996 41.8986,-87.99996 1.616,0 41.9569,86.40566 40.8568,87.51086 -1.3745,1.3809 -12.7252,2.5667 -14.2306,1.4867 -0.7647,-0.5487 -3.3957,-5.6476 -5.8467,-11.3309 l -4.4564,-10.3333 h -16.8619 -16.862 l -4.7848,10.5332 -4.7847,10.5332 -7.5084,0.4668 c -4.464,0.2775 -7.4725,-0.074 -7.4199,-0.8666 z m 51.4893,-35.6666 c -0.3911,-0.9167 -2.7802,-6.6415 -5.3091,-12.72174 l -4.5981,-11.05505 -2.0572,5.05505 c -1.1314,2.78027 -3.5989,8.50504 -5.4833,12.72174 l -3.4262,7.6666 h 10.7925 c 8.1244,0 10.6167,-0.412 10.0814,-1.6666 z m -876.59253,-6.6667 0.35181,-42.99999 h 19.5732 c 21.28406,0 23.27355,0.60242 29.49103,8.93006 5.72423,7.66699 4.01429,22.71405 -3.18619,28.03759 l -3.88324,2.87101 3.97634,1.67193 c 11.01499,4.6314 13.72105,23.4171 5.11434,35.5041 -5.13564,7.2124 -11.39533,8.9231 -32.77062,8.956 l -19.01847,0.029 z m 36.0823,28.115 c 5.81234,-3.0966 6.38863,-12.7807 1.11201,-18.6862 -3.43131,-3.8403 -4.73254,-4.3379 -12.66667,-4.8431 l -8.8425,-0.563 v 13.644 13.644 l 9,-0.9593 c 4.95,-0.5276 10.07872,-1.534 11.39716,-2.2364 z m -3.97617,-37.3146 c 4.11471,-2.16582 4.86874,-3.7129 4.89193,-10.03695 0.0282,-7.69788 -4.30876,-11.09678 -14.1594,-11.09678 h -7.15352 v 11.33333 11.33334 h 6.75432 c 3.71488,0 8.06488,-0.68982 9.66667,-1.53294 z m 556.68294,7.59072 c 11.48321,-24.60166 21.36051,-44.56963 21.94957,-44.37328 1.2713,0.42377 40.84229,84.89366 40.90402,87.31546 0.0293,1.1482 -2.38299,1.6667 -7.75371,1.6667 h -7.79618 l -4.53715,-10.6868 -4.53715,-10.6869 -17.09008,0.3535 -17.09009,0.3535 -4.39557,10 -4.39556,10 -8.06834,0.3941 -8.06833,0.394 z m 28.72529,2.27558 c -1.90876,-4.2167 -4.10186,-9.6167 -4.87356,-12.00003 -0.77169,-2.38333 -1.75241,-4.32823 -2.17937,-4.322 -0.59765,0.009 -7.51392,14.97553 -10.55407,22.83913 -0.24444,0.6322 4.39799,1.1495 10.31652,1.1495 h 10.76097 z m 339.81877,-0.5996 0.3519,-43.06709 7.3333,-0.38934 7.3334,-0.38934 -0.1563,43.05597 -0.1563,43.056 -7.5289,0.4005 -7.529,0.4004 z m -315.98963,-71.3609 c -0.92124,-0.33034 -1.29624,-1.21343 -0.83333,-1.96242 0.53138,-0.85979 1.26419,-0.69493 1.98789,0.44721 1.37212,2.16549 1.66728,-4.05484 0.3547,-7.47536 -0.7124,-1.85648 -1.14227,-1.72806 -2.98234,0.89095 l -2.14997,3.06009 -0.8599,-4 c -1.76698,-8.21946 -1.28607,-15.1389 1.14682,-16.50041 2.98413,-1.67 1.79861,-2.77764 -4.54993,-4.25103 -8.50233,-1.97326 -14.76032,-1.52183 -16.69669,1.20442 -2.3635,3.3276 -14.47023,4.79691 -17.93023,2.17606 -4.0431,-3.06254 -6.75672,-2.30548 -8.49849,2.37096 l -1.61399,4.33334 -1.30331,-4.66667 c -0.71682,-2.56667 -1.88279,-5.36859 -2.59105,-6.2265 -3.41033,-4.13094 -3.87714,-35.33984 -3.51538,-235.02517 l 0.37684,-208.00788 2.83084,-2.83069 c 2.43068,-2.43054 4.88092,-2.92969 17.33334,-3.53101 7.97637,-0.38518 23.20249,-0.62494 33.83582,-0.53281 20.82134,0.18041 46.60819,0.0596 62.66667,-0.29367 5.5,-0.12098 12.02327,0.53027 14.49616,1.44722 2.47289,0.91695 5.91781,1.66719 7.65537,1.66719 1.73756,0 3.90862,1.2 4.82456,2.66667 0.91595,1.46666 2.14533,2.66666 2.73196,2.66666 4.87067,0 18.59275,17.29162 20.86783,26.29619 0.69997,2.77043 1.89522,7.43715 2.6561,10.37048 0.84303,3.25001 1.38032,25.9061 1.37548,58 -0.004,28.96666 0.36632,100.06666 0.82375,157.99999 0.89709,113.61634 0.5089,123.6984 -5.58487,145.04981 -1.92816,6.75594 -3.77739,12.57852 -4.10939,12.93908 -0.33199,0.36056 -1.18844,-0.38944 -1.90321,-1.66667 -1.56893,-2.80351 -7.83374,-3.15006 -7.83374,-0.43333 0,1.03889 0.63472,2.10046 1.41049,2.35905 0.97673,0.32558 0.92077,2.51242 -0.18197,7.11111 -2.67661,11.16212 -2.56872,10.94821 -4.12414,8.17711 -1.16605,-2.07739 -2.35447,-2.31923 -7.577,-1.54188 -3.40673,0.50707 -6.94405,1.53926 -7.86072,2.29376 -2.36008,1.94255 -2.10672,5.13046 0.33334,4.19413 1.59086,-0.61047 1.99582,0.42093 1.97958,5.04184 -0.0112,3.19513 -0.60204,6.70932 -1.31292,7.80932 -1.10456,1.7092 -1.29546,1.66073 -1.31291,-0.33333 -0.0112,-1.28334 -0.55623,-2.33334 -1.2111,-2.33334 -0.65488,0 -1.59523,1.05 -2.08967,2.33334 -0.84871,2.20286 -0.97476,2.19833 -2.25422,-0.081 -0.74539,-1.32787 -1.03514,-3.2485 -0.64389,-4.26807 0.39124,-1.01956 0.11952,-9.16165 -0.60382,-18.09352 -1.15779,-14.29655 -1.05678,-16.52528 0.84418,-18.62582 1.99694,-2.2066 1.97554,-2.48051 -0.28461,-3.64219 -3.4763,-1.78675 -18.93264,-2.94939 -24.34427,-1.8312 -4.72878,0.9771 -7.35817,4.20845 -3.42447,4.20845 2.00855,0 2.18387,2.02561 1.75985,20.33334 -0.39969,17.25701 -0.87099,21.03937 -3.11515,25 -1.45431,2.56666 -3.03643,5.86666 -3.51582,7.33333 -0.82583,2.52659 -0.8786,2.51322 -1.00452,-0.25464 -0.0731,-1.60672 0.46709,-3.29213 1.20042,-3.74536 0.73334,-0.45322 1.33334,-1.68863 1.33334,-2.74536 0,-1.05672 -0.6,-1.92131 -1.33334,-1.92131 -0.73333,0 -1.33333,1.08533 -1.33333,2.41183 0,1.32651 -0.88092,3.57651 -1.9576,5 -1.78016,2.35358 -1.96143,1.71237 -2,-7.07442 -0.0381,-8.67438 -0.58785,-10.68614 -5.37573,-19.67074 -5.76651,-10.82102 -6.42572,-14.10021 -3.34802,-16.65448 2.60333,-2.16057 1.34313,-4.01219 -2.73067,-4.01219 -3.48602,0 -4.27535,2.44597 -1.63983,5.08149 1.2642,1.26419 0.91307,2.26297 -1.61718,4.6 -2.75,2.54 -2.8914,2.57184 -0.94815,0.21353 2.78421,-3.37889 2.88135,-4.56168 0.37464,-4.56168 -2.46097,0 -7.86314,7.5443 -6.72307,9.38898 0.59831,0.96808 1.45981,0.91741 2.76087,-0.16237 1.61886,-1.34353 1.64169,-1.11286 0.15856,1.60192 -0.95293,1.74431 -3.05514,5.27147 -4.67156,7.83813 -2.67167,4.24225 -2.93941,6.38752 -2.94394,23.58798 -0.003,10.40672 -0.45499,19.17575 -1.00499,19.48674 -0.55,0.31099 -1.75374,0.29515 -2.67497,-0.0352 z m 7.78799,-48.79317 c -0.88889,-0.88889 -2.03987,-0.74696 -3.45295,0.42579 -1.64757,1.36736 -1.74435,1.99106 -0.43456,2.80056 2.26214,1.39808 5.67747,-1.43639 3.88751,-3.22635 z m 19.36065,-44.21906 c 5.85547,-2.44657 9.11587,-6.27991 11.93074,-14.02729 1.94701,-5.35874 2.25123,-20.53521 2.84655,-142 0.41272,-84.20978 0.17772,-138.98451 -0.61711,-143.83728 -1.1759,-7.17935 -1.07002,-7.89315 1.26122,-8.50278 2.4179,-0.63229 2.42999,-0.79244 0.24236,-3.20974 -1.26638,-1.39933 -3.09036,-2.24191 -4.0533,-1.8724 -0.96294,0.36952 -1.75079,-0.16279 -1.75079,-1.18291 0,-1.02011 -1.95,-2.49371 -4.33334,-3.27467 -4.4049,-1.44338 -19.75048,-1.83462 -24,-0.61189 -2.84678,0.81911 -3.11932,4.49167 -0.33333,4.49167 1.70956,0 2.01047,3.92094 2.07211,27 0.0397,14.85 0.32313,35.7 0.62993,46.33334 0.57221,19.83251 1.9,167.32965 1.94147,215.66666 l 0.0232,27 h 4.70949 c 2.59022,0 6.8341,-0.88772 9.43084,-1.97271 z m -9.46022,-314.04903 c 0.46061,-0.7453 1.39602,-1.00989 2.07868,-0.58798 1.8494,1.14298 1.50455,1.94306 -0.83748,1.94306 -1.14328,0 -1.70182,-0.60979 -1.2412,-1.35508 z m 642.02871,399.02173 c -0.027,-6.07727 0.4941,-9.66666 1.4022,-9.66666 2.3046,0 0.6468,-3.06573 -1.8565,-3.43313 -1.247,-0.18303 -3.1645,0.94805 -4.261,2.51351 -2.693,3.8448 -2.5185,5.64021 0.3397,3.49408 1.2833,-0.96363 1,-0.32043 -0.6296,1.42933 -1.6297,1.74977 -3.3744,2.77 -3.8772,2.26718 -0.5028,-0.50282 -0.7878,-4.81793 -0.6334,-9.58913 0.2615,-8.07583 0.052,-8.77935 -3.0378,-10.187 -6.3865,-2.9099 -7.4887,-1.10369 -7.4887,12.27263 0,10.56288 -0.2807,12.07679 -2.109,11.37518 -1.16,-0.44513 -2.3954,-0.80932 -2.7454,-0.80932 -0.3499,0 -0.2655,-0.6 0.1878,-1.33333 0.4532,-0.73334 -0.047,-1.33334 -1.112,-1.33334 -1.0648,0 -2.3431,1.05 -2.8406,2.33334 -0.838,2.16175 -1.0492,2.13724 -2.8714,-0.33334 -1.4665,-1.98825 -1.9277,-6.22833 -1.8126,-16.66666 0.085,-7.7 -0.1929,-15.61697 -0.6173,-17.59327 -0.5572,-2.59452 -0.1227,-3.95647 1.5633,-4.9 3.1373,-1.75568 1.667,-2.91814 -4.7854,-3.78359 -6.905,-0.92616 -12.1907,0.42298 -12.1907,3.11158 0,1.41529 0.7256,1.83881 2.1886,1.27741 1.6214,-0.6222 1.853,-0.40001 0.8936,0.85734 -0.7123,0.93346 -1.3713,5.54136 -1.4645,10.23978 -0.093,4.69842 -0.8382,9.19842 -1.6555,10 -1.0799,1.05908 -1.3689,0.94985 -1.0574,-0.39967 0.2851,-1.23552 -1.8028,-2.45415 -6.2381,-3.64095 -7.9181,-2.11872 -10.4308,-2.27769 -9.3903,-0.5941 0.4219,0.68266 0.065,1.67537 -0.794,2.20601 -0.975,0.60257 -1.2039,0.38685 -0.6097,-0.57453 0.5232,-0.84664 0.2805,-1.53935 -0.5394,-1.53935 -0.8199,0 -1.1734,-0.51332 -0.7857,-1.14072 0.3878,-0.6274 -0.9268,-0.83068 -2.9213,-0.45174 -3.3996,0.64592 -3.5027,0.52969 -1.6493,-1.85927 1.9203,-2.47511 1.8964,-2.47975 -0.8305,-0.16163 -2.7257,2.31699 -2.8315,2.29754 -3.6255,-0.66667 -0.4499,-1.67931 -0.8261,-4.63911 -0.8361,-6.57731 -0.01,-1.95276 -0.9477,-3.88067 -2.1027,-4.32392 -3.3696,-1.29303 -0.98,-3.19128 3.0526,-2.42499 3.322,0.63122 3.5122,0.47726 1.8686,-1.51215 -2.3117,-2.79809 -5.2899,-2.8214 -8.3354,-0.0653 -2.21,1.99996 -2.4202,1.93032 -3.0187,-1 -1.8615,-9.11499 -1.8282,-13.01471 0.1351,-15.81774 1.7428,-2.48819 1.7785,-3.14011 0.2262,-4.12328 -3.0132,-1.90835 -6.3393,-1.37992 -9.1773,1.45802 -3.0778,3.07784 -3.8118,6.61029 -0.8654,4.16499 1.4451,-1.19935 1.7499,-0.77037 1.542,2.17008 -0.1425,2.01571 -0.4005,6.06493 -0.5731,8.99826 -0.1727,2.93333 -0.6179,4.5796 -0.9893,3.65836 -0.3714,-0.92124 -1.1752,-1.366 -1.7862,-0.98836 -1.2962,0.8011 -2.5975,-4.66601 -2.6983,-11.33667 -0.3316,-21.94529 1.6941,-163.19767 2.763,-192.66666 0.7448,-20.53333 1.29,-73.03333 1.2115,-116.66666 -0.1733,-96.32299 -0.055,-105.65285 1.3709,-107.95969 0.8191,-1.32529 5.3522,-1.9066 16.9054,-2.16787 8.6824,-0.19636 22.3862,-0.56703 30.4529,-0.82373 8.0666,-0.2567 15.9553,-0.0359 17.5303,0.49078 l 2.8636,0.9575 -0.385,194.22113 -0.385,194.22112 28.3669,-0.64379 c 15.6018,-0.35409 29.1155,-0.18112 30.0305,0.38437 1.1439,0.70697 1.3741,2.63573 0.7369,6.17417 -1.1427,6.34559 -6.7805,30.56484 -9.423,40.47933 -1.8192,6.82591 -6.8741,28.41348 -9.519,40.65251 -0.8313,3.84664 -1.8878,5.41224 -3.8162,5.65535 -2.4528,0.3092 -2.4691,0.25182 -0.2041,-0.7153 2.1523,-0.91898 2.2124,-1.25914 0.4768,-2.69958 -1.6393,-1.36048 -2.4689,-1.00049 -4.7537,2.0628 l -2.7679,3.71089 z m -14.4888,-25.66666 c 1.5442,0 2.4332,-0.7023 2.1098,-1.66667 -0.4702,-1.40219 -3.6005,-1.85573 -7.9966,-1.15858 -0.55,0.0872 -1,1.12277 -1,2.30123 0,1.40603 0.7251,1.86442 2.109,1.33334 1.16,-0.44513 3.31,-0.80932 4.7778,-0.80932 z m -766.58212,27.46933 c -0.81936,-1.79831 -1.48976,-7.79175 -1.48976,-13.31874 0,-5.527 -0.66108,-11.28433 -1.46906,-12.79406 -1.56536,-2.9249 -0.65465,-5.91083 1.41305,-4.63293 0.68266,0.42191 1.2412,0.14313 1.2412,-0.61951 0,-0.76264 -1.57869,-1.78285 -3.50821,-2.26713 -2.52616,-0.63402 -3.85104,-0.26789 -4.73292,1.30794 -1.68517,3.01122 -3.14975,2.74123 -3.4035,-0.62744 -0.11667,-1.54872 -1.14566,-3.84741 -2.28665,-5.1082 -2.43128,-2.68653 -1.16964,-4.76284 1.53178,-2.52087 1.13089,0.93856 2.3236,1.05418 3.07928,0.2985 0.75568,-0.75569 -0.85572,-3.67752 -4.16025,-7.5435 -4.52576,-5.29468 -6.14442,-6.31006 -10.05917,-6.31006 -4.71122,0 -9.09308,3.24931 -14.02217,10.39793 l -2.11308,3.0646 -5.92837,-4.00101 c -3.93733,-2.65727 -6.89759,-3.74756 -8.81423,-3.24635 -1.58722,0.41507 -2.55719,1.28646 -2.15549,1.93642 0.4017,0.64996 -0.11206,1.18174 -1.14168,1.18174 -1.9456,0 -6.28534,4.09244 -6.28534,5.92717 0,0.57778 1.20083,0.73649 2.66851,0.35269 1.78726,-0.46738 2.35627,-0.19262 1.72301,0.832 -0.52002,0.84141 -0.85061,5.25575 -0.73465,9.80964 0.16257,6.38446 -0.36864,8.98164 -2.3206,11.34582 l -2.53142,3.06602 0.75308,-3 c 0.50693,-2.01942 0.15749,-2.99333 -1.06909,-2.97959 -2.77152,0.0311 -5.59479,2.19013 -4.71831,3.60829 0.42836,0.6931 -0.0948,1.26019 -1.16251,1.26019 -1.51362,0 -1.97967,-2.22775 -2.11527,-10.11112 -0.25349,-14.7375 -0.78653,-24.4109 -1.51229,-27.44444 -0.3509,-1.46667 -0.0634,-3.39038 0.63889,-4.27493 1.83459,-2.31068 0.0822,-4.39174 -3.69804,-4.39174 -3.4112,0 -4.44912,2.0016 -1.58798,3.06236 1.22187,0.45301 1.0465,1.26805 -0.65714,3.05397 -5.49829,5.76387 -5.24018,17.60518 -5.19021,-238.11632 0.015,-76.63333 -0.21076,-147.61653 -0.50165,-157.74045 -0.66134,-23.01723 -0.18645,-24.46603 8.26234,-25.20681 3.531,-0.30959 7.92,-0.16512 9.75333,0.32105 1.83333,0.48617 7.7666,0.40361 13.18505,-0.18347 7.55547,-0.81862 10.7015,-0.62797 13.49762,0.81796 2.00525,1.03696 3.99418,1.5371 4.41986,1.11142 1.45036,-1.45036 45.17546,-1.73141 47.83612,-0.30747 1.82317,0.97573 3.11899,0.91317 4.47991,-0.21629 1.48587,-1.23316 2.36277,-1.21731 3.91477,0.0707 1.55303,1.2889 2.42836,1.30435 3.9167,0.0691 1.13302,-0.94032 4.54028,-1.37038 8.33334,-1.05182 l 6.41663,0.5389 0.22133,34.8914 c 0.2173,34.25667 0.16946,34.92774 -2.63001,36.88856 -4.13103,2.89349 -10.6017,2.67471 -9.94323,-0.33618 0.5381,-2.46053 1.1095,-2.5543 6.17633,-1.01366 2.34715,0.71369 3.00384,0.49641 2.55819,-0.84642 -0.72859,-2.19539 -27.48802,-3.27838 -33.05483,-1.33778 -2.21928,0.77365 -4.3995,0.74386 -5.87208,-0.0802 -2.39174,-1.33849 -9.4232,-0.55001 -12.49586,1.40123 -1.37519,0.87329 -1.34143,1.7882 0.17374,4.70869 1.49171,2.87528 1.92678,12.64121 2.1041,47.22982 0.12295,23.98276 0.55981,44.95502 0.97081,46.60502 0.74638,2.99644 0.78178,3 29.7934,3 23.8432,0 29.17611,0.3387 29.77171,1.8908 0.63268,1.64875 -2.72539,15.80332 -10.46462,44.1092 -1.20302,4.4 -2.43262,9.2 -2.73244,10.66667 -1.36292,6.66714 -5.22237,17.11917 -5.60702,15.18474 -0.36942,-1.85785 -3.08009,-2.15168 -20.03171,-2.17137 -10.78246,-0.0125 -20.65448,0.52545 -21.93781,1.19551 -2.85797,1.4922 -3.0601,3.79112 -0.33333,3.79112 1.74415,0 2.03284,7.63264 2.25677,59.66666 0.23444,54.47549 0.3622,65.66805 0.89796,78.66667 l 0.1786,4.33336 h 29.25464 c 16.09006,0 29.53888,0.4599 29.88627,1.02199 0.83,1.34297 -3.17451,22.06855 -8.56166,44.31134 -1.33208,5.5 -2.96541,12.4 -3.62962,15.33334 l -1.20765,5.33333 -1.4174,-4.66667 c -1.30612,-4.30024 -1.42685,-4.38494 -1.53766,-1.07869 -0.15496,4.62369 -1.81634,5.6057 -3.88358,2.29552 -1.338,-2.14247 -1.26629,-2.7504 0.3998,-3.38974 1.11661,-0.42848 2.03019,-1.30635 2.03019,-1.95082 0,-2.17364 -10.17903,-7.9797 -12.45717,-7.10549 -2.44645,0.93879 -2.98966,4.08028 -0.83001,4.80016 0.83136,0.27712 0.56516,1.51329 -0.66994,3.11111 -1.45771,1.8858 -1.82975,2.01654 -1.28858,0.45282 0.95478,-2.75889 -1.29086,-4.23412 -4.76623,-3.13108 -2.67,0.84743 -3.77957,4.66288 -1.35601,4.66288 0.74858,0 1.27517,4.9706 1.24312,11.73395 -0.0591,12.46639 -1.39798,17.51769 -3.19279,12.04543 l -1.02092,-3.11271 -0.6103,3.33333 c -0.91623,5.00421 -2.41546,5.78912 -4.07993,2.136 z m 27.69543,-237.46933 c 0,-1.1 -0.53581,-2 -1.19068,-2 -0.65488,0 -1.53605,0.9 -1.95816,2 -0.46749,1.21828 -0.002,2 1.19069,2 1.07698,0 1.95815,-0.9 1.95815,-2 z m 3.14884,-14.66666 c -0.42211,-1.1 -1.00328,-2 -1.29149,-2 -0.28821,0 -0.52402,0.9 -0.52402,2 0,1.1 0.58117,2 1.29149,2 0.71032,0 0.94612,-0.9 0.52402,-2 z m 1.76198,-11.58334 c -0.42564,-1.06364 -0.74158,-0.7477 -0.80556,0.80556 -0.0579,1.40555 0.25724,2.19305 0.7003,1.75 0.44305,-0.44306 0.49042,-1.59306 0.10526,-2.55556 z m 8.42251,-25.08333 c 0,-0.73333 -0.63541,-1.33333 -1.41202,-1.33333 -0.77661,0 -1.0412,0.6 -0.58798,1.33333 0.45323,0.73333 1.08864,1.33333 1.41203,1.33333 0.32338,0 0.58797,-0.6 0.58797,-1.33333 z m 327.43116,275.21563 c -0.5473,-8.00193 -1.0717,-15.51087 -1.1655,-16.68654 -0.094,-1.17566 -1.092,-2.07566 -2.2181,-2 -1.1262,0.0757 -1.8977,-0.61243 -1.7143,-1.5291 0.1833,-0.91666 -0.8105,-1.66666 -2.2085,-1.66666 -1.8854,0 -2.3618,-0.68868 -1.8445,-2.66667 0.5351,-2.0464 0.041,-2.66667 -2.1249,-2.66667 -1.5522,0 -2.824,0.45 -2.8263,1 0,0.55 -2.9848,1.00402 -6.6279,1.00892 -4.5118,0.006 -7.365,0.75008 -8.9483,2.33333 -2.2103,2.21034 -2.1304,2.33201 1.628,2.47909 2.2478,0.088 2.9461,0.41764 1.619,0.76443 -1.8523,0.48406 -2.3333,2.06772 -2.3333,7.68207 0,7.55014 -2.2399,11.2923 -5.0669,8.46528 -1.1601,-1.16014 -2.1774,-0.95697 -4.1509,0.829 -2.4426,2.21047 -6.2726,1.84934 -4.8471,-0.45704 0.6276,-1.0155 -3.0989,-9.272 -5.6415,-12.49941 -1.0878,-1.38086 -2.2829,-10.09269 -3.5124,-25.60567 -0.7713,-9.73056 -0.7235,-9.63649 -2.8772,-5.66666 -1.094,2.01666 -2.1868,3.66666 -2.4284,3.66666 -0.2415,0 -0.2095,-1.65 0.071,-3.66666 0.4779,-3.43406 0.4266,-3.47635 -0.8086,-0.66667 -0.7253,1.65 -1.6736,3 -2.1072,3 -0.4335,0 -0.4008,-0.75 0.073,-1.66667 0.4736,-0.91666 -0.3538,-0.17058 -1.8386,1.65797 -2.4186,2.97848 -2.7932,3.08083 -3.5982,0.98302 -0.9444,-2.46102 1.6306,-6.73439 3.3993,-5.6413 1.1192,0.69175 3.0824,-4.29911 2.7533,-6.99968 -0.1117,-0.91667 0.7232,-1.66667 1.8554,-1.66667 1.8412,0 2.642,1.53713 2.2323,4.28535 -0.078,0.52361 0.7509,0.60941 1.8421,0.19068 5.5002,-2.11063 -0.5617,-7.60751 -9.7202,-8.81415 l -5.7042,-0.75154 0.9774,4.87816 c 0.5376,2.68299 0.9068,6.07816 0.8205,7.54483 -0.086,1.46667 -0.5997,12.11826 -1.1408,23.67022 -0.6854,14.62957 -1.5122,21.44193 -2.7246,22.44811 -2.31076,1.91785 -4.58876,0.38155 -3.69846,-2.49436 0.6505,-2.1014 0.5852,-2.09787 -0.7911,0.0427 -2.21705,3.44818 -4.21095,2.8344 -3.24855,-1 0.8665,-3.4527 -0.147,-4.11969 -3.2615,-2.14625 -1.2818,0.81214 -1.3726,1.416 -0.3116,2.07171 1.6656,1.0294 0.7093,3.40787 -1.3701,3.40787 -0.7334,0 -0.8828,-0.75 -0.3321,-1.66667 0.7741,-1.28843 0.5247,-1.28071 -1.0989,0.034 -2.8909,2.34096 -3.1697,1.10855 -3.5522,-15.70069 -0.1751,-7.7 -0.6469,-15.10131 -1.0483,-16.44735 -0.68,-2.2799 -0.9544,-2.23643 -4.0112,0.6353 -2.45577,2.30706 -3.05909,2.50348 -2.39799,0.78068 1.03782,-2.70451 -1.99038,-3.1802 -4.46862,-0.70197 -2.2478,2.2478 -1.99225,4.16916 0.43085,3.23933 1.61906,-0.62129 1.76375,-0.28023 0.71358,1.68204 -0.7245,1.35374 -0.88839,2.93643 -0.36419,3.51709 0.5242,0.58066 0.20309,0.62414 -0.71358,0.0966 -1.63187,-0.9391 -2.24794,0.59874 -1.73546,4.33206 0.13593,0.99026 -0.39298,1.40485 -1.17536,0.92131 -1.96168,-1.21238 -1.79118,-5.70122 0.24416,-6.42813 0.91666,-0.32738 1.25658,-1.03746 0.75537,-1.57796 -1.37251,-1.48008 -3.76348,0.46538 -5.19305,4.22542 -1.05358,2.77113 -1.61434,3.0656 -3.25109,1.70722 -1.42424,-1.18188 -1.978,-4.42006 -1.978,-11.56586 0,-5.45842 -0.60542,-11.05564 -1.34538,-12.43827 -0.88195,-1.64793 -1.24748,-42.83864 -1.06115,-119.579 0.15633,-64.38583 0.31176,-154.76593 0.34539,-200.84467 l 0.0611,-83.77953 3.7047,-3.18923 c 3.04684,-2.62291 5.10037,-3.16958 11.56442,-3.07859 4.32285,0.0609 8.51236,-0.29274 9.31016,-0.78576 1.3857,-0.85645 79.85595,-0.90812 91.84315,-0.0605 3.1657,0.22386 6.1657,0.81625 6.6667,1.31644 0.5009,0.50018 0.9108,16.31006 0.9108,35.13305 0,29.77879 -0.2598,34.15153 -2,33.66858 -4.0636,-1.12774 -13.3893,-1.0997 -14.0952,0.0424 -0.4009,0.64863 -1.3288,1.17933 -2.0622,1.17933 -0.7333,0 -0.9625,-0.6 -0.5093,-1.33334 0.4533,-0.73333 0.2241,-1.33333 -0.5093,-1.33333 -0.7333,0 -1.7102,0.60979 -2.1708,1.35508 -0.4606,0.7453 -1.3659,1.02849 -2.0118,0.62933 -0.6458,-0.39917 -1.8255,0.49104 -2.6214,1.97825 -0.7959,1.4872 -2.476,2.68493 -3.7336,2.6616 -2.0013,-0.0371 -1.9547,-0.29303 0.3738,-2.05264 3.9531,-2.98728 0.9597,-4.15712 -11.3994,-4.455 -10.8408,-0.26129 -18.067,1.73196 -14.4409,3.98335 1.5192,0.94331 1.8468,9.8449 1.8468,50.19002 v 49.04334 l 29.5657,-0.36938 c 18.7549,-0.23432 29.8682,0.12008 30.393,0.96923 0.8388,1.3572 -1.0937,10.52196 -3.2473,15.40015 -0.6475,1.46667 -1.4763,4.16667 -1.8419,6 -1.2646,6.34261 -8.8931,34.03405 -11.715,42.52565 -2.0707,6.23095 -3.1391,7.97918 -3.9695,6.49533 -0.9389,-1.6777 -4.4404,-2.01354 -20.1606,-1.93367 -13.1134,0.0666 -19.5386,0.60442 -20.6792,1.73087 -1.3175,1.30109 -1.3175,1.74662 0,2.18572 1.2859,0.42859 1.708,16.42693 1.8935,71.77381 0.1313,39.17226 0.2813,71.6524 0.3334,72.17809 0.052,0.5257 15.3922,0.76136 34.0893,0.5237 23.7245,-0.30156 34.3611,0.0139 35.2075,1.04419 1.2316,1.49914 0.1003,7.34619 -5.9613,30.80964 -5.119,19.81515 -5.6441,22.15348 -7.9348,35.33333 -1.2108,6.96667 -2.5215,13.8144 -2.9126,15.21719 -0.651,2.33492 -0.8179,2.35981 -1.9737,0.29437 -1.1497,-2.05423 -1.4744,-1.99471 -3.6282,0.66512 -2.3095,2.85223 -2.389,2.57741 -3.3604,-11.62771 z m -42.0979,-17.13695 c 0,-0.32338 -0.6,-0.95879 -1.3334,-1.41202 -0.7333,-0.45322 -1.3333,-0.18863 -1.3333,0.58798 0,0.77661 0.6,1.41202 1.3333,1.41202 0.7334,0 1.3334,-0.26459 1.3334,-0.58798 z m -47.29851,-28.50421 c -0.2029,-1.23263 0.4802,-3.21489 1.5181,-4.40503 1.6556,-1.8985 1.5531,-2.25122 -0.836,-2.87599 -3.3847,-0.88512 -5.0924,1.87641 -4.3382,7.01523 0.3606,2.45722 1.185,3.59677 2.294,3.1712 0.952,-0.36534 1.565,-1.67278 1.3621,-2.90541 z M 968.07044,146.37437 c -0.10454,-1.97906 -3.08749,-1.61548 -3.77954,0.46067 -0.37383,1.12149 0.23569,1.62131 1.62598,1.33333 1.22319,-0.25337 2.19229,-1.06067 2.15356,-1.794 z M 53.360075,603.67547 c 0.927626,-1.11773 1.301093,-2.41773 0.829926,-2.88889 -0.471167,-0.47117 -0.856668,-0.15667 -0.856668,0.69888 0,3.25828 -2.305168,1.33294 -5.096993,-4.25715 -2.202182,-4.40944 -2.928955,-8.35253 -3.010491,-16.33333 -0.08735,-8.55032 -0.698775,-11.51945 -3.264739,-15.85396 -1.73649,-2.93333 -3.773271,-6.68333 -4.526181,-8.33333 -0.75291,-1.65 -2.240229,-3 -3.305154,-3 -1.064926,0 -3.157874,-1.55307 -4.650998,-3.45127 l -2.71477,-3.45127 -5.372225,2.37022 c -2.954723,1.30362 -5.688179,3.3657 -6.074347,4.58241 -0.386167,1.2167 -0.484853,9.85314 -0.219303,19.19209 0.41028,14.42885 0.144539,17.39766 -1.768783,19.76051 -1.238381,1.52933 -3.20261,2.92019 -4.3649547,3.09078 -2.133047,0.31307 -4.1634448,-2.82004 -3.023168,-4.66504 0.339099,-0.54868 0.06342,-17.44453 -0.6126318,-37.54634 -0.676046,-20.10182 -1.155456,-76.74876 -1.065354,-125.88209 0.178257,-97.20453 -0.139628,-137.25691 -1.134784,-142.97904 -1.755983,-10.09686 -1.998566,-43.10373 -0.39279,-53.44464 1.334564,-8.59436 1.374639,-12.4954 0.178064,-17.33333 -0.994261,-4.01995 -1.851801,-29.37443 -2.40824201,-71.20332 -0.783124,-58.869243 -0.659171,-65.273193 1.32192901,-68.296733 2.158277,-3.29394 2.444614,-3.34018 22.5126655,-3.63502 24.242356,-0.35617 52.762273,0.0678 65.659918,0.97604 5.13333,0.36149 13.533339,0.94362 18.666679,1.29361 21.95417,1.49683 25.8191,2.1518 35.13815,5.95467 5.39265,2.2006 10.72524,4.0011 11.85021,4.0011 2.67085,0 16.2001,10.82963 16.28189,13.033 0.0347,0.93482 1.50386,2.24745 3.26482,2.91697 1.76096,0.66951 8.30208,6.204673 14.53583,12.300333 8.19909,8.01749 12.29227,13.21455 14.79826,18.78922 1.90529,4.2384 3.46417,8.4684 3.46417,9.4 0,0.9316 0.56638,2.26382 1.25862,2.96048 3.68836,3.71193 4.99681,30.71175 6.0706,125.26667 1.0823,95.30379 1.95988,153.78542 2.77113,184.66666 0.95547,36.37106 -1.79239,55.46475 -11.51721,80.02822 -7.368,18.61047 -19.67424,39.0522 -26.38808,43.83288 -5.62991,4.00885 -8.781,4.0558 -9.32282,0.13889 -0.2536,-1.83333 -1.011,-4.00372 -1.68311,-4.82309 -0.77749,-0.94784 -0.49384,-2.09409 0.77975,-3.15108 2.49358,-2.06949 1.423,-4.02583 -2.20308,-4.02583 -2.08158,0 -2.57624,0.63955 -2.05028,2.65082 0.672,2.56972 -3.41817,9.34918 -5.64052,9.34918 -1.30412,0 -3.1802,-12.27467 -2.85304,-18.66666 0.13137,-2.56667 -0.92355,-7.04033 -2.34426,-9.94147 -1.42071,-2.90114 -2.30814,-5.99134 -1.97207,-6.86713 0.3409,-0.88836 -0.39761,-1.5037 -1.67046,-1.39186 -3.76761,0.33104 -3.67269,-2.85472 0.19176,-6.43618 1.99602,-1.84985 3.16805,-3.36336 2.60451,-3.36336 -0.56355,0 -0.26566,-0.9145 0.66197,-2.03222 0.92762,-1.11772 1.26847,-2.45035 0.75743,-2.96139 -1.29313,-1.29313 -3.56612,2.60364 -2.77484,4.75714 0.41128,1.11932 -0.20267,1.60233 -1.68068,1.32224 -1.65698,-0.314 -2.45345,-1.97143 -2.76131,-5.74623 -0.23797,-2.91771 -1.12115,-5.73045 -1.96264,-6.25051 -1.038,-0.64152 -0.79169,-1.22888 0.766,-1.82662 4.68216,-1.79672 2.04839,-3.09574 -6.2766,-3.09574 -6.23214,0 -9.05329,0.58195 -10.33334,2.13159 -1.55984,1.88836 -1.31344,2.04657 2.15931,1.38646 l 3.92007,-0.74515 -3.22573,2.43318 c -3.16073,2.38414 -3.22694,2.84484 -3.28583,22.86354 -0.12409,42.18747 -0.31387,44.54803 -3.91446,48.68936 -2.67625,3.07817 -3.67908,3.47978 -5.65988,2.26665 -1.32403,-0.8109 -2.44158,-2.3109 -2.48343,-3.33334 -0.5618,-13.72311 -2.58326,-24.35672 -5.07079,-26.6742 -2.48156,-2.31193 -2.86973,-4.75168 -3.74665,-23.54862 -0.75814,-16.25088 -1.42173,-21.25375 -2.94898,-22.2328 -1.60676,-1.03001 -0.69645,-2.64743 4.92911,-8.75796 8.67273,-9.42037 14.42548,-23.93539 17.68822,-44.62996 2.11162,-13.3933 2.22542,-23.4674 1.32545,-117.33333 -1.37364,-143.27027 -1.65867,-156.00223 -3.57323,-159.61098 -2.90934,-5.4838 -10.15952,-14.34108 -11.02805,-13.47255 -0.46524,0.46524 -0.84589,0.0817 -0.84589,-0.85231 0,-0.93402 0.75,-1.39158 1.66666,-1.01681 7.01212,2.86687 7.08487,2.87419 5.17008,0.52021 -2.02296,-2.48695 -5.60671,-2.94635 -7.58122,-0.97183 -0.81486,0.81486 -1.99838,0.80568 -3.26667,-0.0253 -1.72804,-1.13226 -1.67773,-1.54142 0.38367,-3.12012 2.27447,-1.74188 2.27447,-1.85517 0,-2.74112 -4.18766,-1.63119 -24.928179,-2.21975 -27.039199,-0.7673 -1.55149,1.06748 -1.62667,1.61771 -0.33524,2.45358 2.03379,1.31636 2.79748,26.099 3.66466,118.92249 0.33913,36.29999 1.20242,79.49999 1.91842,95.99999 1.66607,38.39378 2.73138,80.05677 2.76154,108 0.027,25.00597 -2.1803,60.52383 -4.03949,65 -1.26603,3.04808 -6.63656,4.28137 -6.63656,1.52401 0,-0.81179 0.88079,-1.13799 1.9573,-0.7249 3.04569,1.16874 3.77048,-1.49419 0.83437,-3.06555 -3.83481,-2.05232 -4.125,-1.83707 -4.125,3.05979 0,2.72422 -1.00902,5.37316 -2.592603,6.80629 -1.425931,1.29045 -2.775931,4.18723 -3,6.4373 C 74.183329,570.99469 73.1,573.10686 72,573.43834 c -1.61406,0.48638 -1.678383,0.26177 -0.333333,-1.16399 0.916666,-0.97166 1.584957,-3.89666 1.48509,-6.5 -0.134928,-3.5173 -0.322996,-3.87697 -0.732047,-1.4 -1.079422,6.53637 -1.670907,7.28868 -3.627136,4.61338 -1.673917,-2.28922 -1.866313,-2.16395 -2.732348,1.77908 -0.5124,2.33295 -2.496622,5.47273 -4.409382,6.97731 -3.047313,2.39702 -3.538803,3.89741 -3.97107,12.12262 -0.540562,10.28585 -2.110449,15.84095 -4.476699,15.84095 -1.081899,0 -1.035947,-0.59481 0.157,-2.03222 z M 12,592.21698 c 0,-0.73334 -0.6,-0.96252 -1.333333,-0.50929 -0.7333337,0.45322 -1.3333337,1.42404 -1.3333337,2.15738 0,0.73333 0.6,0.96251 1.3333337,0.50928 C 11.4,593.92113 12,592.95031 12,592.21698 Z m 113.33334,-1.76394 c 0,-0.32338 -0.6,-0.95879 -1.33333,-1.41202 -0.73333,-0.45322 -1.33333,-0.18863 -1.33333,0.58798 0,0.77661 0.6,1.41202 1.33333,1.41202 0.73333,0 1.33333,-0.26459 1.33333,-0.58798 z m 53.3544,-14.77074 c 0.79297,-0.95546 0.93398,-2.05103 0.31335,-2.4346 -1.30717,-0.80787 -2.95288,0.21262 -5.41061,3.35509 -1.52121,1.94501 -1.39958,2.13866 0.95632,1.52258 1.48455,-0.38822 3.34798,-1.4876 4.14094,-2.44307 z M 60.682878,573.94612 c -1.05948,-1.05948 -3.351941,1.34567 -2.537961,2.66272 0.553652,0.89582 1.240796,0.75945 1.949252,-0.38686 0.601793,-0.97372 0.866712,-1.99786 0.588709,-2.27586 z m 9.983789,-13.57177 c 0,-0.73333 -0.935411,-1.33333 -2.07869,-1.33333 -1.143279,0 -1.707869,0.6 -1.254644,1.33333 0.453225,0.73334 1.388635,1.33334 2.07869,1.33334 0.690054,0 1.254644,-0.6 1.254644,-1.33334 z M 27.224283,544.89837 c 1.159978,-0.44513 2.10905,-1.34513 2.10905,-2 0,-1.82089 -3.189077,-1.41853 -6.078493,0.76691 -2.232626,1.68868 -2.282615,1.96342 -0.36389,2 1.223356,0.0233 3.173356,-0.32178 4.333333,-0.76691 z m -9.89095,-332.25149 c 0,-0.58345 -2.1,-1.20224 -4.666666,-1.3751 -2.566667,-0.17286 -4.6666667,0.30451 -4.6666667,1.06082 0,0.7563 2.0999997,1.3751 4.6666667,1.3751 2.566666,0 4.666666,-0.47737 4.666666,-1.06082 z M 1293.1058,604.04102 c -1.3139,-4.27068 1.4969,-458.47986 2.8693,-463.66665 l 0.882,-3.33334 33.1476,-0.35715 c 18.2311,-0.19644 33.6745,0.16979 34.3186,0.81384 0.6517,0.65175 1.0106,31.84972 0.8093,70.35715 -0.1988,38.05239 -0.1989,121.38616 -2e-4,185.18616 0.3771,121.04807 -0.9687,186.47143 -3.8912,189.16309 -1.2128,1.11702 -1.4146,1.11393 -0.7849,-0.012 0.4662,-0.83358 0,-2.22232 -1.0448,-3.08609 -1.5038,-1.24811 -2.1851,-1.0234 -3.3186,1.0946 -0.7845,1.4658 -1.4263,3.86913 -1.4263,5.34073 0,1.4716 -0.6,3.04646 -1.3334,3.49968 -0.8314,0.51383 -1.3717,-2.34275 -1.4353,-7.58798 -0.056,-4.62661 -0.3361,-9.61202 -0.6222,-11.07869 -0.2861,-1.46666 0.4199,-3.37674 1.5689,-4.24462 6.0046,-4.53567 -5.2518,-6.03602 -12.354,-1.64663 -4.2952,2.65459 -6.4636,7.6003 -2.6989,6.15563 1.2202,-0.46824 1.6646,0.23062 1.3931,2.19068 -1.5507,11.19168 -2.1468,12.94204 -4.9089,14.4137 -2.6875,1.43185 -2.7799,1.37054 -1.0658,-0.70697 1.2886,-1.5619 1.446,-2.70554 0.5023,-3.64925 -1.6443,-1.64432 -3.6474,4.76873 -2.2139,7.08813 0.5524,0.89385 0.305,1.10201 -0.6259,0.52666 -0.8467,-0.52326 -1.5394,-0.21596 -1.5394,0.68287 0,0.89884 -0.331,1.30318 -0.7357,0.89854 -0.4046,-0.40464 -1.0205,-10.55464 -1.3686,-22.55556 -1.5768,-54.36148 -1.495,-53.53811 -6.342,-63.81984 -1.5556,-3.3 -2.6653,-6.75 -2.4659,-7.66667 0.1993,-0.91666 -0.2638,-1.66666 -1.0293,-1.66666 -1.27,0 -1.9359,1.83843 -1.5592,4.30479 0.082,0.53431 -0.8173,4.43431 -1.9976,8.66667 -2.7826,9.97797 -4.3245,22.96657 -4.7923,40.37031 -0.2569,9.55975 -0.8566,13.90177 -1.8931,13.7081 -1.0552,-0.19717 -1.5732,4.47035 -1.7015,15.33333 -0.2033,17.20008 -1.035,23.8708 -3.1386,25.17086 -0.8091,0.50009 -0.9889,0.21194 -0.431,-0.69081 1.6022,-2.59236 -3.2244,-3.42423 -5.6486,-0.97353 -2.0866,2.10955 -2.0586,2.19884 0.4368,1.38988 2.1599,-0.70022 2.2866,-0.5911 0.6666,0.5742 -2.6196,1.88441 -3.6035,1.84086 -4.2274,-0.18714 z m 12.4274,-51 c 0,-0.69667 -0.645,-1.48167 -1.4333,-1.74444 -0.7883,-0.26278 -1.4333,0.52222 -1.4333,1.74444 0,1.22222 0.645,2.00722 1.4333,1.74445 0.7883,-0.26278 1.4333,-1.04778 1.4333,-1.74445 z m 12.6831,-65 c -0.3699,-0.91666 -0.6725,-0.16666 -0.6725,1.66667 0,1.83333 0.3026,2.58333 0.6725,1.66667 0.3699,-0.91667 0.3699,-2.41667 0,-3.33334 z m 3.1169,-7 c 0,-2.51097 -1.7444,-3.39401 -3.9779,-2.01364 -1.5245,0.94223 -1.5454,1.51142 -0.1186,3.23068 1.9116,2.30328 4.0965,1.65415 4.0965,-1.21704 z m -180.5464,113.78352 c -3.3555,-26.05199 -4.8736,-38.11083 -6.0995,-48.45019 -0.7825,-6.59999 -1.7461,-14.39999 -2.1413,-17.33333 -0.3952,-2.93333 -1.2546,-11.33333 -1.9098,-18.66666 -0.6552,-7.33334 -2.0601,-19.63334 -3.122,-27.33334 -1.0619,-7.7 -2.3218,-19.1 -2.7998,-25.33333 -0.4779,-6.23333 -1.7777,-18.23333 -2.8883,-26.66667 -1.1107,-8.43333 -2.2624,-18.63333 -2.5594,-22.66666 -1.0119,-13.73998 -4.7247,-51.32678 -5.2682,-53.33333 -0.298,-1.1 -0.8856,-5.3 -1.3057,-9.33334 -2.601,-24.9706 -3.2714,-31.3385 -4.562,-43.33333 -0.7891,-7.33333 -2.6458,-26.23333 -4.1261,-42 -1.4803,-15.76666 -3.8484,-36.76666 -5.2624,-46.66666 -4.9629,-34.74618 -7.9042,-71.37158 -5.8931,-73.38263 0.6517,-0.65171 16.421,-1.54092 35.0429,-1.97601 27.0813,-0.63274 34.079,-0.44251 34.9624,0.95045 0.6075,0.95784 1.1129,4.44152 1.1231,7.74152 0.02,6.53267 1.9549,28.70319 4.0726,46.66667 0.7348,6.23333 2.2033,23.63333 3.2632,38.66666 1.06,15.03334 4.0533,54.33334 6.6519,87.33333 2.5986,33 5.1107,65.27104 5.5826,71.71343 0.4719,6.44238 1.2763,11.97199 1.7877,12.28803 0.5113,0.31603 1.3151,-6.17341 1.7862,-14.42098 0.471,-8.24758 1.4327,-19.77719 2.1371,-25.62137 1.3439,-11.15092 3.5914,-36.55403 4.8329,-54.62577 0.403,-5.86667 3.1533,-37.06667 6.1118,-69.33333 2.9584,-32.26667 6.1403,-67.1018 7.0708,-77.4114 0.9305,-10.30961 2.3531,-19.98034 3.1613,-21.49053 2.1111,-3.94463 6.4474,-4.4314 39.476,-4.4314 21.6325,0 30.1534,0.44773 31.7186,1.66666 1.7838,1.38915 1.9529,2.99876 1.0152,9.66667 -0.6187,4.4 -2.1049,17 -3.3026,28 -1.1977,11 -3.4124,29 -4.9214,40 -1.5091,11 -2.9915,22.7 -3.2943,26 -1.0021,10.92046 -5.8954,51.18434 -7.2919,60 -1.416,8.93883 -4.2073,32.62708 -9.0338,76.66666 -1.5271,13.93333 -3.6677,31.93333 -4.7571,40 -1.0893,8.06666 -2.3423,18.56666 -2.7844,23.33333 -0.4421,4.76667 -1.0895,10.45521 -1.4386,12.6412 -1.0149,6.3558 -4.4256,33.26138 -6.5104,51.3588 -1.056,9.16667 -3.1937,25.36667 -4.7504,36 -1.5568,10.63333 -3.8198,26.33686 -5.0289,34.89674 -1.2092,8.55987 -2.7447,16.05987 -3.4122,16.66666 -0.7142,0.64916 -0.7811,0.3559 -0.1625,-0.71247 0.6299,-1.08806 0.3148,-2.28217 -0.7863,-2.97959 -2.8369,-1.79685 -3.8375,-1.43617 -3.8375,1.3833 0,1.42339 -0.6642,2.99853 -1.4761,3.50031 -1.0098,0.62409 -1.1769,-0.0882 -0.5288,-2.25465 0.8974,-2.9997 0.8452,-3.03302 -0.9876,-0.63074 -1.8072,2.36868 -1.9938,2.16921 -2.8235,-3.01929 -0.4886,-3.05553 -1.4766,-17.34362 -2.1957,-31.75131 -0.719,-14.40768 -1.6118,-26.50031 -1.984,-26.8725 -0.3722,-0.3722 0.2743,-1.72766 1.4368,-3.01215 1.9413,-2.14515 1.8944,-2.45269 -0.5761,-3.77486 -3.393,-1.81586 -14.4325,-1.88456 -15.5375,-0.0967 -0.4564,0.73851 9e-4,1.66153 1.0163,2.05116 1.199,0.46013 1.6429,2.09234 1.2665,4.65725 -0.6234,4.24725 -1.5411,4.81802 -3.9206,2.43846 -0.8308,-0.83071 -2.6008,-1.08785 -3.9334,-0.57144 -2.3144,0.89689 -2.3171,1.0169 -0.059,2.67996 1.9699,1.45063 2.2362,3.04707 1.5966,9.57144 -1.3166,13.4306 -1.9718,16.21598 -3.9971,16.99317 -2.5436,0.97607 -2.5231,-1.07957 0.036,-3.63894 1.1,-1.1 1.9619,-3.39286 1.9155,-5.09524 l -0.085,-3.09524 -1.3173,3.30124 c -1.0757,2.69584 -1.5455,2.94035 -2.5617,1.33333 -0.6844,-1.08235 -1.2536,-4.18388 -1.2648,-6.8923 -0.013,-3.14121 -0.8728,-5.55529 -2.3743,-6.66666 -1.2947,-0.95825 -3.061,-3.34671 -3.9253,-5.30769 -1.271,-2.88369 -1.2061,-3.86861 0.3392,-5.15108 3.1477,-2.61236 0.8695,-3.95017 -6.7267,-3.95017 -7.0681,0 -10.6346,1.95973 -7.3081,4.01563 1.1273,0.69667 1.4378,2.66856 0.9213,5.85093 -0.4428,2.72894 -0.2246,4.80011 0.5058,4.80011 0.7163,0 1.1449,3.53897 0.9687,7.99999 -0.1851,4.68734 -0.9172,8 -1.7681,8 -1.5075,0 -4.653,18.35828 -4.653,27.15686 0,6.16603 -2.2086,10.63755 -4.7689,9.65507 -1.3179,-0.50571 -1.8977,0.25347 -1.8977,2.48456 0,1.76704 -0.6149,3.59281 -1.3664,4.05726 -0.7515,0.46446 -1.2015,0.13196 -1,-0.73889 0.5775,-2.49566 -5.7864,-2.88991 -8.4044,-0.52066 -2.2226,2.01146 -2.4087,1.79335 -3.109,-3.64401 z m 16.5464,-6.45019 c 0,-0.73333 -0.2646,-1.33333 -0.5879,-1.33333 -0.3234,0 -0.9588,0.6 -1.4121,1.33333 -0.4532,0.73334 -0.1886,1.33334 0.588,1.33334 0.7766,0 1.412,-0.6 1.412,-1.33334 z m 8,-42.04184 c 0,-2.14944 -3.5487,-4.18717 -4.9141,-2.82176 -0.9497,0.94964 2.0634,4.8636 3.7441,4.8636 0.6435,0 1.17,-0.91883 1.17,-2.04184 z m 22.6281,-10.01024 c -2.5156,-1.59091 -3.9614,-1.60758 -3.9614,-0.0457 0,1.26674 4.166,2.66717 5.2947,1.77984 0.3454,-0.27155 -0.2546,-1.05192 -1.3333,-1.73416 z m -710.62796,55.86236 c 0,-1.57101 -2.04418,-7.72101 -4.54263,-13.66667 -4.6475,-11.0598 -7.54944,-27.47694 -4.85691,-27.47694 0.76975,0 1.39954,-0.93061 1.39954,-2.06803 0,-5.73743 -22.35099,-7.58187 -26.52912,-2.18923 l -2.13754,2.75888 -2.3386,-3.17526 c -2.26076,-3.06958 -2.2506,-3.15832 0.30529,-2.66611 3.34438,0.64407 4.75712,-1.51487 2.6515,-4.05199 -2.41613,-2.91125 -6.28359,-2.3467 -9.53413,1.39174 -1.59406,1.83334 -3.32688,3.33334 -3.85071,3.33334 -0.83673,0 -1.13034,-77.53143 -1.26034,-332.81057 -0.0191,-37.47915 0.3292,-69.09222 0.77397,-70.25128 0.53187,-1.38603 3.39489,-2.45306 8.36418,-3.1173 4.15553,-0.55546 7.89244,-0.93007 8.30425,-0.83247 0.41181,0.0976 4.30053,0.5144 8.64161,0.92621 4.34108,0.41182 9.784,1.37289 12.09538,2.13571 2.31138,0.76283 4.72265,1.29252 5.35839,1.1771 0.63573,-0.11542 3.10587,-0.1388 5.48921,-0.052 3.39181,0.12363 4.33333,0.73734 4.33333,2.82461 0,1.48148 0.88889,2.66666 2,2.66666 1.1,0 2,-0.9 2,-2 0,-2.85408 3.62255,-2.47131 6.30937,0.66667 2.41008,2.81476 5.69063,3.58341 5.69063,1.33333 0,-0.73333 -0.6,-1.33333 -1.33333,-1.33333 -2.78546,0 -1.20484,-4.00977 1.66666,-4.22807 1.65,-0.12543 3.90072,-0.29776 5.0016,-0.38295 1.10088,-0.0852 2.63775,-0.54805 3.41527,-1.02858 2.13425,-1.31904 20.27084,-1.1841 28.58313,0.21266 4.03334,0.67775 11.34793,1.27607 16.25465,1.3296 4.90672,0.0535 9.29213,0.69734 9.74535,1.43067 0.45323,0.73334 2.01838,1.33334 3.47811,1.33334 1.45974,0 4.86908,2.15119 7.57632,4.78043 2.70724,2.62923 5.56058,5.17923 6.34076,5.66666 5.388,3.36624 15.9192,22.80267 18.00507,33.23026 0.99727,4.98547 1.69371,32.30546 1.9966,78.32264 0.39147,59.47611 0.13827,72.46138 -1.59893,82 -1.13524,6.23333 -2.64949,12.23333 -3.365,13.33333 -1.09419,1.68215 -1.19159,1.64467 -0.61286,-0.23585 0.37845,-1.22971 -0.10296,-2.89236 -1.0698,-3.69476 -1.35003,-1.12043 -1.94613,-0.75635 -2.5692,1.56918 -1.19028,4.44248 -1.05607,5.0281 1.15227,5.0281 1.1,0 2,0.81999 2,1.8222 0,2.27758 -5.35895,15.71024 -6.98605,17.51113 -0.66257,0.73334 0.02,-1.79254 1.51677,-5.61306 1.77362,-4.52711 2.24031,-7.24375 1.33998,-7.80018 -1.77247,-1.09545 -1.44195,-1.58249 -6.84062,10.07991 -3.191,6.89332 -7.36809,12.88486 -13.44553,19.286 -5.75591,6.06249 -8.27756,9.61903 -7.26414,10.24536 0.85374,0.52764 1.89516,0.74743 2.31427,0.48841 0.4191,-0.25902 0.84656,1.73057 0.94991,4.42131 0.10335,2.69074 2.93846,16.89225 6.30023,31.55892 6.99154,30.50244 11.62323,51.33253 14.82373,66.66666 1.22447,5.86667 3.36597,15.4309 4.75888,21.25386 3.34258,13.97337 3.30362,20.96838 -0.1341,24.07947 -1.46667,1.32732 -2.66667,3.42031 -2.66667,4.6511 0,3.58117 -1.36516,3.98374 -4.13079,1.21811 -1.41638,-1.41638 -4.21638,-2.55111 -6.22222,-2.52163 -5.64737,0.083 -10.24352,-0.58805 -11.014,-1.60808 -1.06026,-1.40365 -10.86495,1.15157 -12.14095,3.16408 -0.61483,0.9697 -1.12706,2.58656 -1.13829,3.59302 -0.0173,1.55101 0.33523,1.55101 2.31292,0 2.11151,-1.65596 2.16052,-1.6095 0.51559,0.48872 -0.99976,1.27526 -2.34976,1.98985 -3,1.58798 -0.65024,-0.40187 -1.24367,0.0547 -1.31874,1.01468 -0.0751,0.95995 -0.6449,-0.35464 -1.26631,-2.92131 -0.89353,-3.69062 -0.67082,-5.0163 1.06482,-6.33833 3.24559,-2.47216 0.30215,-4.69197 -6.22148,-4.69197 -7.07491,0 -13.00073,4.74737 -7.40518,5.93254 1.73734,0.36797 1.62896,1.212 -0.74021,5.76443 -1.57844,3.033 -2.79178,7.91906 -2.81314,11.32837 -0.0328,5.23563 -0.25611,5.69616 -1.76283,3.6356 -1.61406,-2.20736 -1.77536,-2.16782 -2.50267,0.61341 -0.42758,1.63505 -1.09337,2.65687 -1.47954,2.2707 -1.16729,-1.16728 -7.00534,-25.33696 -8.01479,-33.18142 -0.51903,-4.03333 -1.44876,-9.43333 -2.06608,-11.99999 -2.50419,-10.41188 -5.53224,-25.4956 -8.02998,-40 -1.45227,-8.43334 -3.5485,-20.13334 -4.65827,-26 -1.10978,-5.86667 -2.50502,-13.66667 -3.10054,-17.33334 -0.66213,-4.07676 -1.30273,19.33876 -1.64899,60.27396 -0.43132,50.99094 -0.96161,67.33599 -2.22561,68.6 -1.32362,1.32361 -1.65938,1.20073 -1.65938,-0.60729 0,-1.24667 -0.6298,-2.26667 -1.39955,-2.26667 -3.16718,0 -9.26086,4.24463 -11.47518,7.99317 -2.78186,4.70931 -4.45861,5.14195 -4.45861,1.15044 z m 54.11111,-22.47694 c 1.03889,0 1.88889,-0.644 1.88889,-1.4311 0,-2.57761 -4.62766,-0.60658 -4.96117,2.11308 -0.17883,1.45824 0.0143,1.90135 0.42913,0.98468 0.41485,-0.91666 1.60427,-1.66666 2.64315,-1.66666 z M 501.15852,439.91835 c 1.86699,-2.24959 0.63222,-3.54399 -3.38073,-3.54399 -2.22222,0 -3.11111,0.7619 -3.11111,2.66666 0,3.10007 4.17847,3.66476 6.49184,0.87733 z m 12.53547,-88.66401 c 12.04675,-7.94354 12.88249,-11.8424 13.76332,-64.20795 0.40094,-23.83628 0.18293,-49.63869 -0.48448,-57.33869 -0.82084,-9.47025 -0.76439,-14.57994 0.17447,-15.79241 1.03375,-1.335 0.55407,-2.43995 -1.87968,-4.32992 -2.792,-2.16817 -5.20832,-2.48949 -16.60094,-2.20759 l -13.33334,0.32992 0.0404,36 c 0.0655,58.33292 0.70407,103.78274 1.50336,106.99999 0.63971,2.57494 1.62218,2.99876 6.9341,2.99122 3.7434,-0.005 7.6484,-0.97124 9.88277,-2.44457 z M 470.66668,151.04103 c 0,-0.73333 -0.9,-1.33333 -2,-1.33333 -1.1,0 -2,0.6 -2,1.33333 0,0.73334 0.9,1.33334 2,1.33334 1.1,0 2,-0.6 2,-1.33334 z M 260.80567,585.40264 c -0.44311,-2.21556 -0.80566,-5.71899 -0.80566,-7.78541 0,-2.06641 -1.16533,-5.74141 -2.58961,-8.16666 -1.50202,-2.55761 -2.85972,-7.94113 -3.23274,-12.81839 -0.35372,-4.62486 -1.31753,-9.22144 -2.1418,-10.21463 -1.03198,-1.24346 -1.06331,-2.07486 -0.10059,-2.66985 3.12156,-1.92923 1.04559,-3.37334 -4.84933,-3.37334 -4.57928,0 -7.07137,0.77408 -9.33333,2.89908 l -3.08593,2.89909 0.0348,-13.89909 c 0.0191,-7.6445 0.58851,-22.89908 1.26527,-33.89908 0.67676,-11 1.57182,-27.5 1.98903,-36.66667 1.12347,-24.68457 3.29832,-68.15438 6.73754,-134.66666 1.04278,-20.16667 2.20155,-46.90663 2.57505,-59.42214 0.38979,-13.06122 1.78189,-29.30634 3.2677,-38.13242 2.02322,-12.01846 2.33212,-17.38653 1.41429,-24.57786 -0.64587,-5.0605 -0.89426,-13.10091 -0.55199,-17.86758 0.34228,-4.76666 0.85494,-16.52437 1.13926,-26.12822 0.32627,-11.02088 1.14618,-18.46913 2.22289,-20.19322 1.66026,-2.6585 2.6,-2.71778 35.08768,-2.21338 36.96173,0.57387 47.10115,1.22294 49.44116,3.16498 1.02874,0.85377 2.03118,0.84932 2.89335,-0.0128 1.85812,-1.85813 37.52813,-4.78238 39.06365,-3.20247 0.66916,0.6885 1.56121,6.95182 1.98234,13.91849 1.05149,17.39452 3.83533,51.32445 5.52448,67.33333 0.38688,3.66666 1.2935,19.56666 2.0147,35.33333 1.23414,26.98021 1.95432,38.37628 5.09781,80.66666 0.70862,9.53334 1.93257,26.63334 2.71989,38 0.78732,11.36667 2.00759,28.16667 2.71171,37.33334 0.70412,9.16666 1.96225,27.46666 2.79585,40.66666 0.8336,13.2 2.29774,34.2 3.25365,46.66667 2.13861,27.89125 1.98518,51.87258 -0.34677,54.20189 -0.91667,0.91562 -1.66667,3.90936 -1.66667,6.65275 0,2.74339 -0.6,5.3588 -1.33333,5.81202 -0.73333,0.45323 -1.33333,0.20404 -1.33333,-0.55374 0,-2.1237 -7.89739,-5.71496 -12.52496,-5.6956 -2.27794,0.01 -7.04145,1.26953 -10.58558,2.8 -3.54413,1.53047 -8.4733,2.78267 -10.9537,2.78267 -2.72039,0 -7.01248,1.58714 -10.81717,4 -3.46904,2.2 -7.01669,4 -7.88367,4 -0.86698,0 -2.48032,1.35 -3.5852,3 -1.97904,2.95546 -2.03325,2.91092 -3.65128,-3 -2.31883,-8.47109 -2.40114,-9.50056 -3.25155,-40.66666 -0.42022,-15.4 -1.41847,-39.64352 -2.21836,-53.87449 -1.31533,-23.40147 -1.24811,-25.98989 0.70328,-27.08195 4.61946,-2.58517 -0.002,-3.63529 -15.91148,-3.61509 -16.11844,0.0205 -19.70544,0.82087 -16.30565,3.63848 1.27205,1.05424 1.45202,8.21847 0.78252,31.15108 -2.22999,76.38422 -2.51622,81.72286 -4.48773,83.7026 -2.58571,2.59652 -2.98329,1.91239 -3.83219,-6.5942 -0.9795,-9.81527 -3.23065,-22.85758 -4.0944,-23.72133 -0.38373,-0.38373 -1.07936,1.21062 -1.54584,3.54301 -0.46648,2.33239 -1.38043,4.56969 -2.03101,4.97177 -0.65058,0.40207 -0.84646,1.27536 -0.4353,1.94063 0.41116,0.66527 -0.0907,2.80948 -1.11525,4.76489 -1.18932,2.2699 -2.20328,3.00442 -2.8045,2.03162 -1.47602,-2.38824 -3.06865,-1.79641 -3.91928,1.45643 -0.77034,2.94578 -0.80237,2.94962 -2.77978,0.33333 -1.10024,-1.45573 -2.01953,-3.96855 -2.04285,-5.58404 -0.0233,-1.6155 -0.75897,-4.50996 -1.63477,-6.43213 -1.24199,-2.72585 -1.23205,-4.07183 0.0452,-6.11697 1.90084,-3.04374 0.86474,-5.508 -2.06897,-4.9208 -1.54616,0.30948 -2.14166,2.72037 -2.48213,10.04896 -0.24636,5.30298 -1.1862,11.00298 -2.08854,12.66666 -1.00223,1.84788 -1.67417,8.81828 -1.72688,17.91391 -0.0475,8.18897 -0.55365,15.35633 -1.12488,15.92748 -2.40566,2.40532 -4.72445,1.36829 -5.48908,-2.4549 z m 4.07738,-1.36162 c -0.36988,-0.91667 -0.67251,-0.16667 -0.67251,1.66667 0,1.83333 0.30263,2.58333 0.67251,1.66666 0.36988,-0.91666 0.36988,-2.41666 0,-3.33333 z m -1.30555,-14.58333 c -0.42564,-1.06365 -0.74158,-0.7477 -0.80556,0.80555 -0.0579,1.40556 0.25724,2.19306 0.70029,1.75 0.44306,-0.44305 0.49043,-1.59305 0.10527,-2.55555 z M 292.02,536.33701 c 0.79592,-1.4872 1.94905,-2.39381 2.5625,-2.01468 0.61345,0.37913 1.85092,-0.19696 2.74993,-1.28021 2.68007,-3.22928 -1.93273,-3.98624 -7.67655,-1.25971 -2.74406,1.30257 -4.2392,2.61863 -3.32254,2.92457 0.91667,0.30595 1.66667,1.40626 1.66667,2.44515 0,2.77646 2.35319,2.29931 4.01999,-0.81512 z m 38.13019,-201.62932 c -0.50977,-13.38333 -1.14753,-26.73333 -1.41726,-29.66666 -0.26973,-2.93333 -0.87173,-13.13333 -1.33777,-22.66667 -1.88295,-38.51748 -3.41117,-62.26626 -4.21219,-65.45776 -0.56328,-2.2443 -1.49782,-3.11756 -2.80112,-2.61744 -3.18529,1.22232 -4.74998,-0.69496 -2.13039,-2.61045 3.15841,-2.30948 1.47369,-3.86909 -2.97369,-2.75287 -2.48964,0.62486 -3.1484,1.35127 -2.26125,2.49346 1.03255,1.32939 -1.18745,103.14253 -2.36097,108.27839 -0.16757,0.73334 -0.23361,9.88334 -0.14677,20.33334 l 0.1579,19 h 10.20517 10.20518 z m -50.15018,-37.77885 c 0,-2.14412 -3.68987,-3.4683 -4.77446,-1.7134 -0.47292,0.7652 -0.23902,2.01211 0.51978,2.7709 0.75879,0.7588 1.07753,2.35652 0.70831,3.5505 -0.50544,1.63442 -0.15022,1.5313 1.43752,-0.41732 1.15987,-1.42349 2.10885,-3.3093 2.10885,-4.19068 z m 16.66667,2.11219 c 0.45322,-0.73333 0.22404,-1.33333 -0.50929,-1.33333 -0.73333,0 -1.70416,0.6 -2.15738,1.33333 -0.45322,0.73333 -0.22405,1.33333 0.50929,1.33333 0.73333,0 1.70415,-0.6 2.15738,-1.33333 z m -29.72978,-5.13811 c -1.38162,-0.87643 -1.31453,-1.44191 0.33333,-2.80951 1.13471,-0.94173 2.06311,-2.5526 2.06311,-3.57971 0,-1.47871 0.75093,-1.37533 3.60714,0.49659 1.98393,1.30024 4.83393,2.47167 6.33333,2.60317 1.49941,0.1315 3.91173,0.4315 5.3607,0.66667 1.44898,0.23516 2.67024,-0.17243 2.71392,-0.90577 0.0437,-0.73333 0.81339,-2.65368 1.71048,-4.26744 1.51654,-2.72809 1.27916,-3.03184 -3.38058,-4.3259 -8.73284,-2.4252 -25.57233,-1.06822 -26.64172,2.14686 -0.2842,0.85444 0.7163,1.94487 2.22334,2.42319 1.7025,0.54035 2.74006,2.01369 2.74006,3.89092 0,3.31725 1.00652,4.80994 3.22222,4.77862 0.81413,-0.0115 0.68962,-0.49924 -0.28533,-1.11769 z m 6.39644,-0.19522 c 0,-0.73334 -0.26459,-1.33334 -0.58797,-1.33334 -0.32339,0 -0.9588,0.6 -1.41203,1.33334 -0.45322,0.73333 -0.18863,1.33333 0.58798,1.33333 0.77661,0 1.41202,-0.6 1.41202,-1.33333 z m 23.25832,-2.15572 c 1.61008,-0.61784 1.77876,-1.26135 0.67823,-2.58741 -1.74957,-2.1081 -5.26988,-1.07106 -5.26988,1.55244 0,2.02233 1.27167,2.30897 4.59165,1.03497 z m -9.92498,-71.17762 c 0,-0.73333 -0.56459,-1.33333 -1.25465,-1.33333 -0.69005,0 -1.62546,0.6 -2.07869,1.33333 -0.45322,0.73334 0.11137,1.33334 1.25465,1.33334 1.14328,0 2.07869,-0.6 2.07869,-1.33334 z m 37.33333,-9.33333 c 0,-0.73333 -0.6,-1.33333 -1.33333,-1.33333 -0.73334,0 -1.33334,0.6 -1.33334,1.33333 0,0.73333 0.6,1.33333 1.33334,1.33333 0.73333,0 1.33333,-0.6 1.33333,-1.33333 z m 335.7953,371.95157 -0.46197,-6.71347 6.49469,-3.23567 c 5.14821,-2.56485 6.0466,-2.74054 4.33334,-0.8474 -1.18875,1.31355 -2.17055,4.44102 -2.18178,6.94995 -0.0112,2.50892 -0.60204,5.46168 -1.31291,6.56168 -0.86167,1.33333 -1.29931,1.44444 -1.31292,0.33333 -0.0112,-0.91667 -0.62042,-1.66667 -1.35375,-1.66667 -0.73333,0 -1.33333,0.86459 -1.33333,1.92131 0,1.05673 -0.54212,2.25636 -1.20471,2.66586 -0.66258,0.4095 -1.41258,-2.27651 -1.66666,-5.96892 z m 696.30989,3.27064 c 0.064,-1.55325 0.3799,-1.8692 0.8055,-0.80555 0.3852,0.9625 0.3378,2.1125 -0.1052,2.55555 -0.4431,0.44306 -0.7582,-0.34444 -0.7003,-1.75 z m -632.6008,-3.499 c 0.91372,-1.47842 4.49561,-1.32392 4.49561,0.19392 0,0.68775 -1.15843,1.1632 -2.5743,1.05655 -1.41586,-0.10666 -2.28045,-0.66937 -1.92131,-1.25047 z m 457.1622,-9.05655 c 0.4532,-0.73334 1.0886,-1.33334 1.412,-1.33334 0.3234,0 0.588,0.6 0.588,1.33334 0,0.73333 -0.6354,1.33333 -1.4121,1.33333 -0.7766,0 -1.0412,-0.6 -0.5879,-1.33333 z m 261.75,-0.91082 c 0.9625,-0.38516 2.1125,-0.33779 2.5555,0.10526 0.4431,0.44306 -0.3444,0.75819 -1.75,0.70029 -1.5532,-0.064 -1.8692,-0.37992 -0.8055,-0.80555 z M 234.15935,571.29884 c -0.8296,-1.34232 2.62698,-10.92449 3.9408,-10.92449 1.0869,0 -0.66665,9.76652 -1.99141,11.09127 -0.63256,0.63256 -1.50131,0.55823 -1.94939,-0.16678 z m 946.04055,-1.52449 c 0.5729,-1.71884 2.4017,-2.0276 2.5667,-0.43333 0.055,0.53167 -0.62,1.20667 -1.5,1.5 -0.88,0.29333 -1.36,-0.18667 -1.0667,-1.06667 z m -784.90794,-4.13362 c -1.26696,-2.04998 0.46847,-3.37262 2.17978,-1.66131 0.95758,0.95757 0.98058,1.70337 0.0699,2.26619 -0.74656,0.4614 -1.75892,0.1892 -2.24969,-0.60488 z m 783.74044,-1.03743 c -0.1131,-1.22592 -0.6131,-6.14615 -1.1112,-10.93384 -0.7264,-6.98121 -0.5017,-9.04018 1.1345,-10.39808 3.0552,-2.53566 3.8443,-0.20768 4.1566,12.26367 0.2307,9.21292 -0.067,11.00284 -1.8497,11.13716 -1.1685,0.088 -2.2171,-0.84299 -2.3302,-2.06891 z m 1.8505,-9.89561 c -0.3698,-0.91667 -0.6725,-0.16667 -0.6725,1.66666 0,1.83334 0.3027,2.58334 0.6725,1.66667 0.3699,-0.91667 0.3699,-2.41667 0,-3.33333 z m -941.42082,0.54164 c -0.46139,-0.74656 -0.1892,-1.75892 0.60489,-2.24969 2.04998,-1.26696 3.37262,0.46847 1.66131,2.17978 -0.95758,0.95757 -1.70337,0.98058 -2.2662,0.0699 z m 6.53793,-2.87498 c 0.45322,-0.73333 1.08864,-1.33333 1.41202,-1.33333 0.32339,0 0.58798,0.6 0.58798,1.33333 0,0.73334 -0.63541,1.33334 -1.41202,1.33334 -0.77662,0 -1.0412,-0.6 -0.58798,-1.33334 z m 626.10526,-0.77777 c 0.064,-1.55326 0.37992,-1.8692 0.80556,-0.80556 0.38516,0.9625 0.33779,2.1125 -0.10526,2.55556 -0.44306,0.44305 -0.75819,-0.34445 -0.7003,-1.75 z m -426.77193,-1.07957 c 0,-0.28821 0.93117,-0.88134 2.06925,-1.31806 1.18657,-0.45533 1.72177,-0.2318 1.25465,0.52401 -0.78301,1.26694 -3.3239,1.87393 -3.3239,0.79405 z m 6.66667,0 c 0,-0.28821 0.93116,-0.88134 2.06925,-1.31806 1.18657,-0.45533 1.72176,-0.2318 1.25464,0.52401 -0.78301,1.26694 -3.32389,1.87393 -3.32389,0.79405 z m 715.99989,-18.66667 c 0,-0.28821 0.9,-0.86938 2,-1.29149 1.1,-0.42211 2,-0.1863 2,0.52402 0,0.71032 -0.9,1.29149 -2,1.29149 -1.1,0 -2,-0.23581 -2,-0.52402 z m 35.3333,-4.80932 c 0.4533,-0.73333 1.0887,-1.33333 1.4121,-1.33333 0.3233,0 0.5879,0.6 0.5879,1.33333 0,0.73334 -0.6354,1.33334 -1.412,1.33334 -0.7766,0 -1.0412,-0.6 -0.588,-1.33334 z m -1065.33319,-8 c 0.45322,-0.73333 1.42405,-1.33333 2.15738,-1.33333 0.73333,0 0.96251,0.6 0.50929,1.33333 -0.45323,0.73334 -1.42405,1.33334 -2.15738,1.33334 -0.73334,0 -0.96251,-0.6 -0.50929,-1.33334 z m 428.66667,-112.5034 c 0,-0.27688 1.05,-1.32688 2.33333,-2.33333 2.11474,-1.6585 2.1619,-1.61134 0.50341,0.5034 -1.74183,2.221 -2.83674,2.92731 -2.83674,1.82993 z m 10.66666,-12.82993 c 0.78494,-1.46666 1.72716,-2.66666 2.09383,-2.66666 0.36666,0 0.0244,1.2 -0.76049,2.66666 -0.78494,1.46667 -1.72716,2.66667 -2.09383,2.66667 -0.36666,0 -0.0244,-1.2 0.76049,-2.66667 z M 1065.5548,212.5395 c -2.6864,-1.70289 0.6423,-2.56833 6.9265,-1.80086 3.5507,0.43363 4.5849,0.98545 3.3333,1.77846 -2.3198,1.46976 -7.9571,1.48207 -10.2598,0.0224 z m -364.88812,-1.49847 c 0.45322,-0.73333 1.42404,-1.33333 2.15738,-1.33333 0.73333,0 0.96251,0.6 0.50928,1.33333 -0.45322,0.73333 -1.42404,1.33333 -2.15738,1.33333 -0.73333,0 -0.96251,-0.6 -0.50928,-1.33333 z M 103.33334,168.37437 c 0.45323,-0.73334 1.72405,-1.33334 2.82405,-1.33334 1.1,0 1.62918,0.6 1.17595,1.33334 -0.45322,0.73333 -1.72404,1.33333 -2.82404,1.33333 -1.1,0 -1.62918,-0.6 -1.17596,-1.33333 z m -14.000009,-0.52402 c 0,-0.28821 0.93116,-0.88134 2.06925,-1.31806 1.18657,-0.45533 1.72176,-0.2318 1.25465,0.52401 -0.78301,1.26694 -3.3239,1.87393 -3.3239,0.79405 z M 482.66668,50.374367 V 4.3743668 H 585.33334 688.00001 V 50.374367 96.374357 H 585.33334 482.66668 Z m 22.78537,23.35139 c -0.35044,-13.00915 0.71086,-13.48864 2.64416,-1.19463 2.01183,12.79341 2.30453,13.38884 6.35159,12.92075 3.37953,-0.39088 3.64943,-0.99419 5.55221,-12.41085 l 2,-12 0.38402,12.3827 0.38402,12.38269 12.28265,-0.38269 12.28264,-0.3827 0.41382,-5 c 0.388,-4.68798 0.68938,-5 4.82959,-5 4.1207,0 4.47276,0.35638 5.26861,5.33333 l 0.85283,5.33334 h 11.98424 11.98425 v -11.33334 c 0,-6.23333 0.52877,-11.33333 1.17504,-11.33333 0.64628,0 1.87818,2.85 2.73756,6.33333 4.38864,17.78857 3.42592,16.33334 10.80546,16.33334 3.6384,0 6.6048,-0.15 6.592,-0.33334 -0.0128,-0.18333 -1.78585,-6.31587 -3.9401,-13.62786 -3.69446,-12.53976 -3.78875,-13.43606 -1.6608,-15.78743 1.24082,-1.37109 2.96514,-4.08855 3.83181,-6.0388 l 1.57578,-3.5459 0.11211,3.33333 c 0.0617,1.83333 1.30867,10.53333 2.77114,19.33333 1.46246,8.8 2.66074,16.15 2.66284,16.33333 0.01,0.85493 14.58768,0.21263 15.13089,-0.66666 0.49885,-0.80751 3.45709,-18.21904 7.98533,-47 0.28845,-1.83333 0.60616,8.20167 0.70603,22.3 l 0.18157,25.63333 h 24.66667 24.66667 v -6.63333 -6.63334 h -5.33334 -5.33333 v -27.99999 -28 h -6.66667 -6.66666 v 14.34294 14.34294 l -6,-0.4772 -6,-0.4772 v -7.19908 -7.19907 h 5.33333 5.33333 v -6.66667 -6.66666 h -17.19068 c -13.14689,0 -17.35212,0.4207 -17.87697,1.78845 -0.37747,0.98365 -1.42606,7.73365 -2.33022,15 -2.39715,19.26496 -3.20001,19.83778 -5.11852,3.65198 -2.5671,-21.65773 -1.98332,-20.44043 -9.80261,-20.44043 h -6.69658 l 0.78329,5 c 0.55698,3.55536 0.41238,4.35578 -0.50046,2.77031 -2.89307,-5.02485 -9.87409,-7.77031 -19.75796,-7.77031 h -9.50929 l -0.12289,24.33333 -0.12288,24.33333 -3.19079,-21.33333 c -4.52787,-30.27293 -3.11824,-27.33333 -13.10712,-27.33333 h -8.49287 l -0.78057,4.33333 c -0.78662,4.3669 -5.62726,36.90528 -6.59535,44.33333 -0.28672,2.2 -0.61121,-7.85 -0.72108,-22.33333 l -0.19978,-26.33333 h -8.54056 -8.54055 l -2.41469,16.33333 -2.41468,16.33333 -2.29176,-14.66666 c -1.26047,-8.06667 -2.33061,-15.41667 -2.3781,-16.33334 -0.0598,-1.15354 -2.75459,-1.66666 -8.75299,-1.66666 h -8.66667 v 34.73634 34.73635 l 6.87842,-0.40302 6.87842,-0.40301 z m 152.19063,5.31527 c 0,-2.56667 0.27439,-3.61667 0.60976,-2.33333 0.33537,1.28333 0.33537,3.38333 0,4.66666 -0.33537,1.28334 -0.60976,0.23334 -0.60976,-2.33333 z m -5.30934,-6.30961 -5.66666,-0.51038 v -7.12241 -7.12242 l 6,-0.47719 6,-0.4772 v 8.34294 c 0,4.58861 -0.15,8.23811 -0.33334,8.10999 -0.18333,-0.12811 -2.88333,-0.46261 -6,-0.74333 z M 551.13603,56.041027 c 0.46244,-3.85 0.91176,-8.8 0.99848,-11 0.13848,-3.51305 0.28088,-3.35073 1.16976,1.33334 2.9376,15.48002 2.92757,16.66666 -0.14089,16.66666 -2.67786,0 -2.81236,-0.4644 -2.02735,-7 z m 106.50665,-5 c 0,-2.56666 0.27439,-3.61666 0.60976,-2.33333 0.33537,1.28333 0.33537,3.38333 0,4.66667 -0.33537,1.28333 -0.60976,0.23333 -0.60976,-2.33334 z m -74.976,-11.33333 c 0,-10.17971 0.84145,-11.63473 4.57143,-7.90476 4.26669,4.26669 1.72769,17.90476 -3.33334,17.90476 -0.68095,0 -1.23809,-4.5 -1.23809,-10 z m 121.33333,55.33333 c 0,-0.8816 55.11111,-1.33333 162.66667,-1.33333 107.55555,0 162.66652,0.45173 162.66652,1.33333 0,0.8816 -55.11097,1.33333 -162.66652,1.33333 -107.55556,0 -162.66667,-0.45173 -162.66667,-1.33333 z m 204.3599,-10.27083 c -5.47663,-1.05785 -8.52368,-6.7046 -8.0855,-14.98391 0.38455,-7.26617 0.47606,-7.42004 4.65318,-7.82433 l 4.26091,-0.41241 0.40575,7.07907 c 0.38431,6.70481 0.60959,7.10235 4.26108,7.51918 4.82857,0.5512 6.09827,-1.39417 6.12426,-9.38326 0.0185,-5.69147 -0.44025,-6.62355 -4.92188,-10 -2.71827,-2.04793 -7.21827,-5.90292 -10,-8.56665 -4.93727,-4.72782 -5.0577,-5.07154 -5.0577,-14.43589 0,-8.91119 0.28831,-9.88107 4.05775,-13.65052 3.75187,-3.75187 4.61218,-4.01177 11.41257,-3.44783 9.63321,0.79886 12.65001,3.71127 12.96371,12.51511 0.22971,6.44687 0.17817,6.53419 -4.1007,6.94675 -3.95716,0.38154 -4.3351,0.0922 -4.35375,-3.33333 -0.0297,-5.45534 -1.73016,-7.35952 -6.12426,-6.85792 -3.63976,0.4155 -3.87773,0.82789 -4.2561,7.37574 l -0.40078,6.93563 8.3664,6.08778 c 4.60152,3.34828 9.11061,7.42724 10.0202,9.06437 2.31087,4.15921 2.17837,18.944 -0.21119,23.56491 -2.81059,5.43506 -9.83488,7.58053 -19.01395,5.80751 z m -191.02657,-29.0625 v -28.66667 h -5.33333 c -5.20635,0 -5.33333,-0.11111 -5.33333,-4.66666 v -4.66667 h 16 16 v 4.66667 c 0,4.55555 -0.12699,4.66666 -5.33334,4.66666 h -5.33333 v 28.66667 28.66666 h -5.33333 -5.33334 z m 26.66667,-4.66667 v -33.33333 h 14 14 v 4.66667 4.66666 h -8.66667 -8.66666 v 8.66667 8.66667 h 7.33333 7.33333 v 4.66666 4.66667 h -7.33333 -7.33333 v 10 10 h 8.66666 8.66667 v 5.33333 5.33333 h -14 -14 z m 34.66667,0.0466 v -33.37997 h 5.33333 5.33333 v 27.93638 27.93637 l 8.33334,0.39696 8.33333,0.39695 v 4.66667 4.66667 l -13.66667,0.37998 -13.66666,0.37997 z m 32,-0.0466 v -33.33333 h 14.66666 14.66667 v 4.66667 4.66666 h -9.33333 -9.33334 v 8.66667 8.66667 h 7.33334 7.33333 v 4.59698 4.59699 l -7,0.40301 -7,0.40302 -0.39049,9.60444 -0.39049,9.60444 9.05716,0.39556 9.05715,0.39555 0.41382,5 0.41382,5 h -14.74715 -14.74715 z m 42.08327,31.73686 c -0.30446,-0.95527 -2.41555,-14.63686 -4.69132,-30.40352 -2.27576,-15.76667 -4.44028,-30.05216 -4.81005,-31.74554 -0.63009,-2.88557 -0.3149,-3.05299 5.02012,-2.66667 l 5.69243,0.41221 2.86439,22.20152 c 1.57542,12.21083 3.12061,22.97016 3.43376,23.90962 0.45403,1.36208 6.56101,-42.04932 6.43988,-45.77781 -0.0179,-0.55 2.32979,-1 5.21702,-1 5.17691,0 5.23985,0.0599 4.55103,4.33333 -0.38416,2.38334 -2.62495,17.23334 -4.97953,33 l -4.28106,28.66667 -6.95155,0.40353 c -4.82757,0.28023 -7.12068,-0.12715 -7.50512,-1.33334 z m 29.89282,1.34363 c -0.0131,-0.2276 -0.16315,-15.26384 -0.33333,-33.41386 l -0.30943,-33.00005 5.68996,5e-5 5.68996,4e-5 -0.35663,33 -0.35662,33 -5,0.41382 c -2.75,0.2276 -5.01076,0.2276 -5.02391,0 z m 53.35724,-33.08049 v -33.33333 h 5.33333 5.33334 v 33.33333 33.33333 h -5.33334 -5.33333 z m 22.8364,30.53863 c -4.83766,-4.50697 -5.50307,-8.21524 -5.50307,-30.66825 0,-24.23359 1.19067,-29.0158 8.11592,-32.59699 6.11069,-3.15996 15.12902,-1.9668 19.70773,2.6074 3.4884,3.48502 3.5122,3.64912 3.9316,27.03582 0.232,12.94124 0.058,24.98028 -0.3873,26.75343 -0.445,1.77315 -2.3725,4.67277 -4.2832,6.4436 -4.74347,4.39607 -17.05891,4.63859 -21.58168,0.42499 z m 14.23027,-8.13863 c 1.10881,-1.10881 1.6,-8.03809 1.6,-22.57143 0,-17.28715 -0.3681,-21.33952 -2.09524,-23.06666 -2.63144,-2.63144 -3.84475,-2.63144 -6.47619,0 -1.72715,1.72714 -2.09524,5.77951 -2.09524,23.06666 0,21.4206 0.60696,24.17143 5.33333,24.17143 1.17334,0 2.85334,-0.72 3.73334,-1.6 z m 18.93331,-22.46968 v -33.40301 l 6.94695,0.40301 6.94696,0.40302 4.1304,16 c 2.2717,8.8 4.4982,16.9 4.9477,18 0.4496,1.1 0.8647,-6.25 0.9226,-16.33334 l 0.1053,-18.33333 h 4.6667 4.6666 v 33.41 33.40999 l -5.5786,-0.41 -5.5787,-0.40999 -5.5569,-21.69116 c -3.0563,-11.93014 -5.946,-22.08014 -6.4214,-22.55556 -0.4754,-0.47542 -0.8644,9.43561 -0.8644,22.0245 v 22.88888 h -4.66656 -4.66665 z M 704.55556,7.1521368 c -0.30555,-0.30555 -0.55555,-1.05555 -0.55555,-1.66666 0,-0.61111 73.25,-1.11111 162.77778,-1.11111 108.79081,0 162.62911,0.44576 162.32961,1.34404 -0.4324,1.29721 -323.26224,2.72334 -324.55184,1.43373 z"
       id="path1" />
  </g>
</svg>
