<?xml version="1.0" encoding="UTF-8"?>
<svg width="1800.5" height="718.03" version="1.1" viewBox="0 0 476.38 189.98" xmlns="http://www.w3.org/2000/svg">
    <rect x="113.26" y="40.925" width="65.222" height="13.295" stroke-width=".353"/>
    <path d="m68.17 72.374h-13.295v35.81h-54.874v13.295h97.205v-13.295h-29.036z" stroke-width="1.0034"/>
    <rect x="199.24" width="13.295" height="85.29" stroke-width=".353"/>
    <path d="m249.26 58.052c-5.8188 0-10.536-4.717-10.536-10.536s4.717-10.536 10.536-10.536c5.8188 0 10.536 4.717 10.536 10.536s-4.717 10.536-10.536 10.536m49.564-17.602h-26.628c-3.0132-9.7582-12.104-16.848-22.852-16.848-13.208 0-23.915 10.706-23.915 23.914s10.707 23.914 23.915 23.914c11.052 0 20.348-7.4985 23.089-17.685h26.391v31.545h13.295v-85.29h-13.295z" stroke-width="1.0034"/>
    <path d="m342.42 119.55h-22.786l12.878-25.838h-45.217v13.295h24.293l-32.131 64.469h14.299l19.253-38.631h29.412v21.009h13.295v-59.828h-13.295z" stroke-width="1.0034"/>
    <rect x="370.01" y="93.151" width="13.295" height="96.829" stroke-width=".353"/>
    <rect x="463.09" y=".000757" width="13.295" height="85.765" stroke-width=".353"/>
    <path d="m405.2 71.948c-5.8188 0-10.536-4.717-10.536-10.536 0-5.8188 4.717-10.536 10.536-10.536s10.536 4.717 10.536 10.536c0 5.8188-4.717 10.536-10.536 10.536m0.0843-34.45c-13.208 0-23.915 10.706-23.915 23.914 0 13.208 10.707 23.914 23.915 23.914 13.207 0 23.914-10.706 23.914-23.914 0-13.208-10.707-23.914-23.914-23.914" stroke-width="1.0034"/>
    <path d="m192.57 125.53c-5.8188 0-10.536-4.717-10.536-10.536s4.717-10.536 10.536-10.536c5.8188 0 10.536 4.717 10.536 10.536s-4.717 10.536-10.536 10.536m0.0843-34.45c-13.208 0-23.915 10.706-23.915 23.914s10.707 23.914 23.915 23.914c13.207 0 23.914-10.706 23.914-23.914s-10.707-23.914-23.914-23.914" stroke-width="1.0034"/>
    <g fill="#ed1b76" stroke-width="1.0034">
        <path d="m456.13 142.11h-28.472v-29.851h28.472zm-48.164 19.127h67.856v-68.106h-67.856z"/>
        <path d="m61.348 65.246c-9.5775 0-17.343-7.7654-17.343-17.344 0-9.5775 7.7654-17.342 17.343-17.342 9.5786 0 17.343 7.7644 17.343 17.342 0 9.5785-7.7644 17.344-17.343 17.344m0.11339-54.437c-20.482 0-37.086 16.601-37.086 37.084 0 20.482 16.604 37.084 37.086 37.084 20.48 0 37.083-16.602 37.083-37.084 0-20.483-16.603-37.084-37.083-37.084"/>
        <path d="m153.91 92.585h-16.078l8.0293-14.299zm-46.211 16.473h76.343l-38.214-67.897z"/>
    </g>
</svg>
