<?xml version="1.0" standalone="no"?>
<!DOCTYPE svg PUBLIC "-//W3C//DTD SVG 20010904//EN"
 "http://www.w3.org/TR/2001/REC-SVG-20010904/DTD/svg10.dtd">
<svg version="1.0" xmlns="http://www.w3.org/2000/svg"
 width="900.000000pt" height="234.000000pt" viewBox="0 0 900.000000 234.000000"
 preserveAspectRatio="xMidYMid meet">
<metadata>
Created by potrace 1.10, written by Peter Selinger 2001-2011
</metadata>
<g transform="translate(0.000000,234.000000) scale(0.100000,-0.100000)"
fill="#000000" stroke="none">
<path d="M20 2325 c0 -9 11 -19 23 -24 49 -19 127 -125 127 -172 0 -9 6 -35
14 -60 7 -24 21 -78 30 -119 34 -151 44 -197 60 -270 8 -41 23 -108 32 -149 9
-40 17 -116 17 -167 1 -78 -3 -102 -23 -144 l-23 -50 43 -37 c42 -37 90 -120
90 -158 0 -11 6 -49 15 -85 16 -71 35 -171 60 -320 9 -52 22 -129 30 -170 21
-119 43 -251 50 -304 12 -87 47 -130 57 -68 3 15 11 50 18 77 27 111 39 164
55 240 10 44 23 107 30 140 8 33 21 96 30 140 9 44 23 106 31 137 8 32 14 67
14 79 0 12 6 45 14 73 16 58 34 144 47 231 6 35 17 68 28 79 19 18 19 18 26
-30 3 -27 12 -76 20 -109 7 -33 21 -96 30 -140 9 -44 22 -109 30 -145 7 -36
21 -101 30 -145 9 -44 23 -103 31 -131 8 -28 14 -61 14 -74 0 -13 6 -46 14
-74 21 -76 38 -145 47 -196 17 -93 35 -160 46 -171 17 -17 32 -2 38 39 7 47
32 203 50 307 8 44 22 123 31 175 17 100 34 194 54 295 7 33 15 80 19 105 15
90 34 132 88 188 l53 57 -25 53 c-30 62 -34 164 -11 265 8 34 22 98 31 142 42
199 51 238 85 380 7 28 16 66 19 85 4 20 21 63 37 95 22 45 41 67 76 90 81 52
71 55 -157 55 -142 0 -205 -3 -205 -11 0 -6 9 -22 20 -36 16 -21 20 -41 20
-103 0 -42 -7 -99 -15 -126 -8 -27 -15 -62 -15 -79 0 -16 -7 -66 -15 -110 -14
-77 -27 -158 -59 -365 -24 -156 -47 -300 -61 -390 -8 -47 -17 -106 -20 -132
-3 -26 -10 -50 -15 -53 -13 -8 -40 35 -40 63 0 14 -7 45 -14 71 -14 43 -21 69
-61 216 -17 61 -37 134 -59 210 -7 28 -21 79 -31 115 -19 76 -42 157 -61 219
-8 25 -14 55 -14 68 0 28 -28 42 -41 22 -5 -8 -12 -25 -14 -39 -3 -14 -12 -49
-20 -78 -55 -197 -68 -247 -90 -332 -10 -36 -23 -85 -30 -110 -29 -101 -68
-245 -89 -325 -8 -33 -19 -76 -24 -95 l-9 -35 -12 30 c-7 17 -17 57 -22 90 -6
33 -16 101 -24 150 -8 50 -21 131 -29 180 -14 85 -24 152 -62 398 -24 159 -44
276 -60 352 -20 99 -18 136 11 179 14 20 25 41 25 46 0 6 -81 10 -205 10 -177
0 -205 -2 -205 -15z"/>
<path d="M1962 2085 c-34 -28 -126 -55 -189 -55 -32 0 -43 -4 -43 -15 0 -8 4
-15 9 -15 13 0 46 -58 65 -117 13 -40 17 -96 18 -299 2 -270 -2 -295 -59 -371
-29 -40 -29 -45 2 -74 13 -13 25 -28 25 -33 0 -5 8 -18 18 -29 15 -17 17 -44
15 -296 -3 -302 -10 -349 -67 -413 -14 -17 -26 -34 -26 -39 0 -5 25 -9 55 -9
65 0 139 -23 178 -56 35 -30 39 -30 74 -1 49 41 116 57 240 57 l113 0 0 115
c0 63 -4 115 -8 115 -5 0 -29 -19 -53 -41 -53 -50 -97 -79 -206 -135 -61 -32
-84 -40 -91 -31 -11 14 -32 446 -32 667 l0 150 43 0 c23 0 78 -9 122 -20 44
-11 86 -20 93 -20 9 0 12 24 12 86 l0 86 -36 -7 c-20 -3 -50 -12 -68 -19 -36
-16 -112 -36 -141 -39 -19 -2 -20 5 -23 183 -4 209 15 600 29 615 24 25 218
-113 240 -172 5 -13 12 -23 16 -23 10 0 42 113 46 160 l2 35 -100 6 c-102 7
-176 30 -204 63 -19 22 -34 20 -69 -9z"/>
<path d="M2730 2085 c-19 -14 -41 -25 -50 -25 -19 0 -127 -34 -136 -42 -3 -4
7 -24 23 -45 58 -74 62 -102 65 -403 3 -268 2 -276 -19 -317 -13 -23 -27 -44
-33 -48 -14 -9 -13 -42 3 -52 50 -32 57 -84 47 -358 -8 -231 -24 -359 -46
-386 -8 -8 -14 -20 -14 -26 0 -5 -9 -18 -20 -28 -25 -23 -17 -35 24 -35 40 0
122 -27 158 -51 37 -26 51 -24 104 16 39 30 53 35 99 35 140 0 288 132 369
330 48 117 63 176 76 285 16 135 30 183 63 211 l29 25 -30 57 c-26 50 -30 70
-36 172 -10 193 -37 339 -81 430 -33 70 -45 88 -93 133 -88 82 -121 92 -379
123 -24 3 -45 9 -48 15 -10 15 -38 9 -75 -16z m234 -45 c138 -62 222 -262 246
-589 16 -217 -11 -559 -56 -702 -7 -26 -14 -54 -14 -63 0 -15 -12 -45 -56
-142 -49 -109 -133 -189 -204 -196 l-35 -3 -6 120 c-4 66 -10 442 -14 836 l-8
715 28 22 c34 27 60 28 119 2z"/>
<path d="M4949 2091 c-42 -33 -102 -52 -176 -58 -40 -3 -73 -8 -73 -11 0 -2
13 -21 28 -41 60 -75 65 -105 66 -393 l1 -263 -33 -67 c-18 -38 -38 -68 -43
-68 -16 0 -10 -26 11 -45 72 -65 84 -141 69 -435 -12 -243 -21 -289 -70 -345
-16 -17 -26 -35 -22 -39 3 -3 30 -6 59 -6 57 0 137 -27 184 -61 l28 -21 34 25
c56 42 118 57 237 57 90 0 110 3 115 16 10 27 7 202 -4 209 -6 4 -36 -17 -67
-45 -31 -29 -66 -56 -77 -61 -12 -5 -37 -19 -56 -30 -73 -45 -145 -78 -153
-70 -10 10 -25 323 -29 596 l-3 220 39 3 c21 2 78 -7 127 -19 49 -12 92 -19
95 -16 7 7 8 156 1 163 -5 5 -61 -7 -112 -24 -103 -35 -135 -43 -146 -36 -21
13 6 773 29 796 25 25 209 -108 232 -168 14 -35 34 -18 48 39 24 101 29 127
24 132 -3 3 -37 5 -77 5 -88 0 -176 22 -219 55 -39 30 -37 30 -67 6z"/>
<path d="M6418 2087 c-15 -12 -63 -31 -108 -41 -44 -11 -80 -24 -80 -29 0 -5
13 -28 29 -51 15 -24 31 -53 34 -67 3 -13 10 -42 16 -64 6 -22 11 -147 11
-283 0 -233 -1 -244 -23 -290 -13 -26 -30 -57 -38 -70 -12 -21 -12 -24 4 -33
9 -6 26 -28 37 -49 17 -34 20 -59 20 -187 0 -294 -34 -521 -85 -563 -26 -22
-18 -40 18 -40 44 0 149 -36 175 -60 26 -24 36 -25 53 -4 31 38 88 64 139 64
75 0 165 46 234 121 56 60 126 168 126 194 0 8 4 16 9 19 9 6 41 105 62 191 6
28 15 91 19 140 9 97 28 146 65 171 l24 16 -26 41 c-29 47 -52 157 -53 257 -3
289 -106 497 -285 573 -22 9 -97 24 -168 32 -70 8 -136 19 -147 25 -26 14 -31
13 -62 -13z m237 -53 c31 -15 68 -43 85 -64 34 -43 90 -151 90 -174 0 -8 6
-30 14 -48 36 -85 49 -214 48 -474 -1 -247 -9 -340 -44 -484 -6 -25 -14 -61
-18 -80 -25 -112 -84 -225 -156 -296 -47 -47 -70 -62 -100 -67 -21 -4 -42 -3
-46 1 -5 5 -10 46 -12 93 -8 175 -19 1536 -12 1563 4 18 18 32 39 41 44 19 49
19 112 -11z"/>
<path d="M7526 2058 c-16 -88 -43 -208 -80 -355 -9 -35 -23 -91 -31 -125 -9
-35 -22 -84 -30 -109 -8 -26 -15 -54 -15 -64 0 -10 -7 -38 -14 -64 -8 -25 -22
-72 -30 -103 -9 -32 -22 -82 -30 -110 -8 -29 -22 -82 -31 -118 -10 -36 -23
-85 -30 -110 -7 -25 -20 -74 -29 -110 -56 -217 -76 -279 -111 -343 -18 -33
-44 -71 -58 -87 -14 -15 -23 -30 -20 -34 10 -10 341 -7 347 3 3 5 -5 16 -19
25 -30 20 -65 93 -65 137 0 18 7 60 16 93 8 34 22 88 30 121 9 33 22 85 30
115 7 30 15 64 16 75 3 19 12 20 182 23 105 1 184 -2 189 -7 5 -5 18 -36 29
-68 10 -32 26 -76 34 -98 9 -22 23 -58 31 -80 55 -147 60 -158 108 -255 65
-130 128 -225 212 -322 87 -100 107 -89 52 30 -38 81 -52 113 -74 172 -10 25
-23 57 -31 72 -8 14 -14 35 -14 45 0 10 -4 23 -9 29 -5 5 -14 25 -19 44 -6 19
-29 87 -51 150 -45 126 -54 219 -26 256 24 31 17 51 -30 95 -42 39 -105 147
-105 182 0 9 -6 31 -14 49 -8 18 -49 141 -91 273 -42 132 -83 256 -90 275 -7
19 -20 62 -30 95 -10 33 -23 80 -31 105 -7 25 -17 61 -21 80 -10 41 -40 53
-47 18z m40 -503 c7 -19 14 -44 14 -56 0 -12 7 -47 16 -78 8 -31 22 -81 30
-111 9 -30 21 -75 29 -100 7 -25 20 -72 30 -105 10 -33 22 -70 26 -83 5 -13 9
-32 9 -43 0 -19 -6 -19 -157 -17 l-158 3 1 35 c0 19 6 58 13 85 30 116 39 154
55 223 35 158 46 209 51 245 7 46 22 47 41 2z"/>
<path d="M5750 2060 c-238 -36 -368 -217 -309 -430 21 -73 45 -118 115 -210
86 -115 104 -148 104 -194 0 -31 4 -36 28 -42 76 -17 121 -63 179 -184 66
-139 68 -146 67 -280 0 -120 -1 -128 -32 -192 -37 -76 -84 -122 -142 -139 -35
-11 -47 -10 -88 7 -50 21 -118 97 -128 144 -3 14 -17 39 -30 55 l-24 30 0
-147 c0 -86 4 -149 10 -153 5 -3 83 -7 172 -7 151 -1 167 0 213 22 202 94 282
382 183 655 -6 17 -13 59 -16 95 -4 69 -18 94 -57 104 -32 8 -300 322 -343
401 -26 49 -52 128 -52 159 0 46 39 167 64 200 63 83 183 96 260 28 29 -26 66
-113 66 -157 0 -54 16 -79 25 -39 8 34 32 112 51 167 27 74 22 82 -53 95 -101
16 -201 21 -263 12z"/>
<path d="M3520 2021 c0 -5 16 -19 35 -31 44 -27 87 -83 109 -140 15 -39 17
-80 14 -300 -3 -241 -4 -257 -25 -295 -12 -22 -27 -49 -33 -60 -10 -18 -6 -26
24 -59 l36 -37 0 -267 c0 -212 -3 -279 -16 -331 -17 -67 -58 -151 -75 -151 -5
0 -9 -7 -9 -15 0 -13 26 -15 170 -15 175 0 187 3 157 39 -32 38 -46 110 -56
284 -14 222 -14 942 0 909 5 -13 16 -30 24 -38 8 -9 15 -27 15 -40 0 -14 7
-41 15 -61 8 -19 15 -44 15 -54 0 -10 6 -33 14 -51 7 -18 21 -60 31 -93 9 -33
22 -71 27 -85 6 -14 14 -38 19 -55 4 -16 24 -75 44 -130 20 -55 41 -114 46
-132 5 -18 14 -35 19 -38 6 -4 10 -15 10 -25 0 -10 6 -31 14 -47 8 -15 31 -68
52 -118 41 -100 86 -198 181 -390 66 -134 97 -184 105 -169 2 5 1 137 -3 294
-11 461 -10 718 3 762 6 22 25 51 42 65 25 21 28 28 18 41 -6 10 -22 35 -34
57 -23 39 -23 47 -23 350 l0 310 25 40 c13 22 32 46 42 53 10 7 18 17 18 23 0
10 -303 13 -313 3 -3 -4 7 -23 23 -43 l30 -36 0 -607 c0 -396 -3 -609 -10
-613 -6 -3 -12 0 -14 7 -8 32 -39 126 -51 158 -7 19 -27 82 -45 140 -18 58
-38 123 -45 145 -7 22 -21 67 -30 100 -9 33 -23 80 -30 105 -13 45 -31 114
-58 225 -9 33 -22 87 -31 120 -8 33 -22 94 -31 135 -9 41 -22 95 -29 120 l-12
45 -202 3 c-121 1 -202 -1 -202 -7z"/>
<path d="M7865 2020 c-3 -6 4 -14 17 -19 31 -12 78 -71 99 -124 9 -23 24 -80
34 -127 27 -138 46 -222 60 -265 26 -80 37 -168 26 -214 -11 -49 -1 -81 25
-81 23 0 90 -46 113 -79 12 -17 31 -56 43 -88 19 -53 21 -81 22 -308 1 -242 0
-251 -22 -291 -12 -22 -31 -50 -42 -62 -11 -12 -20 -26 -20 -32 0 -6 65 -10
190 -10 162 0 190 2 190 15 0 8 -4 15 -9 15 -13 0 -45 57 -64 114 -14 39 -17
87 -17 230 1 286 34 406 129 469 20 14 46 26 57 29 17 3 20 15 25 118 4 73 15
141 28 185 12 39 26 97 32 129 5 33 12 62 14 66 2 4 9 37 15 75 15 91 52 166
105 213 25 22 42 42 38 46 -9 8 -368 8 -377 -1 -3 -4 7 -19 22 -33 59 -54 67
-75 65 -178 -4 -158 -71 -390 -155 -540 -11 -20 -31 -57 -44 -83 -14 -26 -34
-55 -44 -64 -19 -17 -20 -17 -30 6 -6 13 -20 40 -31 59 -62 101 -133 272 -162
385 -24 95 -47 227 -47 268 0 44 27 102 64 136 51 48 42 51 -158 51 -113 0
-187 -4 -191 -10z"/>
</g>
</svg>
