<?xml version="1.0" encoding="UTF-8"?>
<svg id="Capa_1" xmlns="http://www.w3.org/2000/svg" version="1.1" xmlns:xlink="http://www.w3.org/1999/xlink" viewBox="0 0 2000 1817">
  <!-- Generator: Adobe Illustrator 30.1.0, SVG Export Plug-In . SVG Version: 2.1.1 Build 136)  -->
  <defs>
    <style>
      .st0, .st1 {
        fill: #010101;
      }

      .st2 {
        fill: #efc74f;
      }

      .st3 {
        fill: #fff;
      }

      .st1 {
        stroke: #010101;
        stroke-miterlimit: 10;
      }

      .st4 {
        fill: #edc54d;
      }

      .st5 {
        fill: #dab13b;
      }

      .st6 {
        fill: url(#Degradado_sin_nombre);
      }

      .st7 {
        fill: #b1281f;
      }
    </style>
    <linearGradient id="Degradado_sin_nombre" data-name="Degradado sin nombre" x1="702.17" y1="487.44" x2="702.58" y2="487.44" gradientTransform="translate(-11028.02 -339021.41) rotate(53.24) scale(397.02)" gradientUnits="userSpaceOnUse">
      <stop offset="0" stop-color="#0097d2"/>
      <stop offset=".25" stop-color="#0780c3"/>
      <stop offset=".5" stop-color="#057cbe"/>
      <stop offset="1" stop-color="#1a3d6f"/>
    </linearGradient>
  </defs>
  <path class="st1" d="M675.24,1520h-78.38v169.67h32.15v-66.79h46.23c9.62,0,16.66-7.03,16.66-16.64v-69.6c0-9.61-7.04-16.64-16.66-16.64ZM660.23,1595.69h-31.21v-49.45h31.21v49.45ZM1125.84,1622.88c9.66,0,16.73-7.03,16.73-16.64v-69.6c0-9.61-7.07-16.64-16.73-16.64h-78.72v169.67h32.29v-66.79h9.9l24.04,66.79h32.76l-23.8-66.79h3.54-.01ZM1110.76,1595.69h-31.35v-49.45h31.35v49.45ZM1573.94,1520l-33.32,169.67h31.68l5.63-31.17h38.25l5.87,31.17h32.38l-32.85-169.67h-47.64ZM1582.63,1631.78l13.85-77.1h2.35l13.14,77.1h-29.34ZM197.13,1588.66h-46.76v-42.42h31.02v27.65h31.72v-37.26c0-9.61-7.05-16.64-16.68-16.64h-61.1c-9.63,0-16.68,7.03-16.68,16.64v62.1c0,9.61,7.05,16.64,16.68,16.64h46.76v48.04h-30.78v-29.53h-31.72v39.14c0,9.61,7.05,16.64,16.68,16.64h60.86c9.63,0,16.68-7.03,16.68-16.64v-67.73c0-9.61-7.05-16.64-16.68-16.64h0ZM420.99,1662.72h-31.88v-142.72h-31.88v153.03c0,9.61,7.08,16.64,16.76,16.64h62.1c9.68,0,16.76-7.03,16.76-16.64v-153.03h-31.88v142.72h.02ZM1345.59,1607.88l-31.06-87.88h-34.83v169.67h32.24v-86.95l33.65,86.95,32.71-86.95v86.95h30.83v-169.67h-32.71l-30.83,87.88ZM1849.66,1520.23v85.77l-30.76-85.77h-32.63v169.44h31.7v-86.01l31.46,86.01h31.93v-169.44h-31.7ZM832.28,1689.67h77.49v-26.95h-44.95v-47.34h39.1v-26.72h-39.1v-42.42h44.95v-26.25h-77.49v169.67h0Z"/>
  <polygon class="st7" points="295.13 582.9 531.58 346.2 1466.33 346.34 1703.06 582.93 999.64 1387.05 295.13 582.9"/>
  <path class="st4" d="M538.63,362.84l920.66.13,220.84,220.71-680.49,777.92L318.06,583.64l220.57-220.8M527.63,329.57c-1.34,0-4.35,1.24-5.28,2.18l-250.15,250.41,727.45,830.34,726.33-830.33-250.42-250.28c-.94-.94-3.96-2.18-5.3-2.18l-942.63-.14h0Z"/>
  <path class="st5" d="M528.76,339.55l940.39.14,243.08,242.94-712.58,814.61L285.96,582.6l242.8-243.06M527.64,319.59c-4.04,0-9.66,2.32-12.49,5.15l-251.56,251.82c-2.83,2.83-2.99,7.62-.35,10.63l731.63,835.1c1.32,1.5,3.05,2.26,4.79,2.26s3.48-.75,4.79-2.26l730.51-835.1c2.63-3.01,2.47-7.79-.36-10.63l-251.83-251.69c-2.83-2.83-8.46-5.15-12.49-5.15l-942.63-.14h-.01Z"/>
  <g>
    <path class="st2" d="M1191.91,998.77c-.16-.74-.31-1.44-.51-2.08-2.02-6.64-5.92-12.93-11.9-19.24-6.63-6.98-14.74-12.92-25.53-18.69-9.88-5.28-20.96-9.72-34.89-13.99-8.98-2.75-18.15-5.44-27.02-8.05-3.4-1-6.8-2-10.2-3l-1.86-.55c-8.17-2.42-16.35-4.83-24.54-7.21-7.37-2.14-14.74-4.27-22.11-6.39-5.42-1.56-10.85-3.13-16.27-4.7-4.37-1.26-8.73-2.53-13.09-3.8-6.43-1.88-12.87-3.75-19.31-5.6-7.31-2.1-14.63-4.18-21.95-6.27-6.35-1.81-12.7-3.62-19.05-5.44-4.14-1.19-8.27-2.39-12.41-3.6-3.99-1.16-7.97-2.32-11.96-3.47-7.43-2.13-14.87-4.25-22.31-6.37-4.5-1.28-9.01-2.57-13.51-3.85-3.86-1.1-7.72-2.21-11.58-3.31-5.22-1.5-10.44-2.99-15.67-4.48-5.33-1.52-10.67-3.03-16.01-4.54-6.26-1.78-12.53-3.55-18.79-5.34-3.67-1.05-7.34-2.11-11.01-3.17-3.68-1.07-7.36-2.13-11.05-3.18-6.92-1.97-13.84-3.94-20.76-5.9-4.94-1.4-9.87-2.8-14.81-4.2-4.16-1.18-8.32-2.37-12.48-3.56-5.01-1.43-10.01-2.86-15.02-4.28-4.9-1.39-9.81-2.78-14.71-4.16-5.92-1.67-11.84-3.34-17.76-5.03-4.13-1.18-8.26-2.37-12.39-3.56-4.09-1.18-8.17-2.36-12.27-3.52-4.5-1.28-9-2.55-13.51-3.82-4.24-1.19-8.48-2.39-12.72-3.59-4.42-1.26-8.85-2.53-13.27-3.79-4.83-1.39-9.67-2.77-14.5-4.14-6.36-1.81-12.73-3.6-19.1-5.39-4.46-1.25-8.92-2.51-13.38-3.77-2.73-.77-5.46-1.55-8.2-2.32-3.17-.9-6.34-1.8-9.51-2.69,2.41,2.75,4.82,5.5,7.22,8.25l4.36,4.99c15.25,17.42,30.49,34.85,45.74,52.27l51.6,58.94s39.42,45.04,50.01,57.12l25.26,28.84c11.63,13.27,23.25,26.54,34.87,39.81,9.61,10.97,19.21,21.96,28.81,32.94,7.88,9.02,15.76,18.03,23.65,27.04,18.97,21.68,37.94,43.35,56.92,65.02,4.86,5.55,9.72,11.09,14.58,16.63,5.91,6.74,11.81,13.47,17.71,20.21,7.7,8.79,15.39,17.59,23.08,26.39,6.16,7.05,12.33,14.1,18.5,21.15,16.37-18.76,32.75-37.51,49.11-56.28,7.28-8.35,14.56-16.7,21.84-25.05,10.17-11.67,20.35-23.35,30.53-35.01,9.5-10.89,19.01-21.78,28.53-32.66l18.76-21.47c13.59-15.56,27.17-31.12,40.75-46.69l8.86-10.16c5.32-6.11,10.82-12.42,16.27-18.6.67-.76.61-.96.5-1.36-.22-.79-.39-1.55-.55-2.29h.01Z"/>
    <path class="st2" d="M1582.42,610.14c-.28-.92-.56-1.83-.83-2.75-1.32-4.54-3.82-8.63-7.65-12.49-2.56-2.58-5.22-5.09-7.71-7.43-22.03-20.6-44.06-41.2-66.1-61.79l-33.24-31.07c-17.74-16.58-35.48-33.17-53.21-49.77-.87-.82-1.62-1.67-2.35-2.5h-647.42c-6.43,3.63-12.12,8.31-16.94,13.92-3.63,4.23-8.61,10.03-11.26,19.23-1.26,4.38-4.35,14.89-.51,23.83,3.66,8.53,19.63,13.67,51.4,23.61,5.8,1.81,19.52,6.02,25.27,7.77,5.53,1.68,11.05,3.36,16.58,5.06,9.45,2.91,18.89,5.86,28.33,8.8,5.47,1.7,10.94,3.41,16.41,5.11,5.46,1.69,10.92,3.39,16.38,5.08,8.22,2.55,16.44,5.09,24.66,7.65,7.07,2.2,14.14,4.42,21.21,6.64,6.68,2.1,13.37,4.2,20.06,6.28,8.05,2.51,16.11,5.01,24.17,7.51,6.85,2.13,13.71,4.25,20.56,6.39,7.3,2.27,14.59,4.55,21.88,6.83,8.23,2.57,16.45,5.14,24.68,7.7,7.15,2.22,14.3,4.44,21.45,6.65,6.62,2.05,13.23,4.1,19.85,6.15,7.86,2.44,15.71,4.9,23.56,7.35l12.69,3.96,32.28,10.07,38.62,12.07c13.76,4.29,27.52,8.58,41.27,12.87l.39.12c11.78,3.67,23.56,7.34,35.34,11,6.91,2.15,13.82,4.29,20.74,6.44l11.56,3.59c3.44,1.07,6.89,2.13,10.33,3.2,8.51,2.63,17.31,5.35,25.95,8.09l1.54.49c5.12,1.62,10.42,3.3,15.5,5.46,17.44,7.4,32.44,19.25,44.58,35.2,9.16,12.04,14.72,24.01,17.02,36.61.56,3.08,1.25,6.04,2.06,8.79.61,2.09,1.71,3.86,3.26,5.25,1.26,1.13,2.6,1.66,4.21,1.66.38,0,.78-.03,1.19-.09,1.92-.28,3.77-.98,5.68-2.14,3.32-2.02,6.45-4.75,9.59-8.37l1.91-2.21c12.21-14.09,24.84-28.67,37.3-42.97,7.71-8.85,15.44-17.68,23.17-26.51,5.58-6.38,11.17-12.76,16.75-19.15,12-13.75,22.83-26.16,33.79-38.8,5.21-6.01,10.45-12.18,15.51-18.15l1.99-2.34c2.86-3.37,4.76-6.78,5.8-10.42l.98-3.45v-3.33l-.21-.68-.02-.02Z"/>
  </g>
  <path class="st0" d="M1262.26,138.46h-349.39v5.27h349.39v-5.27ZM912.87,247.46h349.39v-5.27h-349.39v5.27h0ZM930.65,224.3c3.5,0,19.31-.34,19.31-18.37,0-18.97-21.84-20.28-21.84-26.83,0-2.45.88-2.54,1.79-2.54,2.28,0,1.39,5.52,1.39,5.52h16.25s2.93-19.87-17.74-19.87c-14.17,0-18.49,9.95-18.49,16.76,0,18.5,21.84,19.88,21.84,27.18,0,1.97-.44,2.82-2.78,2.82-3.61,0-2.59-7.3-2.59-7.3h-16.48s-2.99,22.63,19.36,22.63h-.01ZM912.26,202.55h14.45s-.79,7.33,3.85,7.33c2.76,0,3.46-1.46,3.46-3.72,0-7.92-21.78-9.94-21.78-27.23,0-7.64,5.42-15.73,17.53-15.73,19.04,0,16.72,18.04,16.72,18.04h-14.09s1.15-5.52-2.56-5.52c-3.02,0-2.68,2.77-2.68,3.52,0,7.4,21.94,8.71,21.94,26.74,0,16.76-15.07,17.38-18.44,17.38-20.89,0-18.4-20.8-18.4-20.8h0ZM1184.9,178.21v30.54c0,1.36,1.12,2.45,2.48,2.45h.77c1.37,0,2.38-1.1,2.38-2.45v-30.54c0-1.36-1.01-2.28-2.38-2.28h-.77c-1.37,0-2.48.92-2.48,2.28ZM1187.9,176.77c.96,0,1.73.83,1.73,1.78v29.94c0,.95-.78,1.86-1.73,1.86h-.44c-.96,0-1.73-.92-1.73-1.86v-29.94c0-.95.78-1.78,1.73-1.78h.44ZM1078.52,162.31v61.96h22.72c14.58,0,15.53-13.48,15.53-17.27v-27.35c0-10.88-7.45-17.34-16.63-17.34h-21.61ZM1115.75,179.83v26.62c0,3.67-.68,16.86-14.53,16.86h-21.59v-60.04h20.53c9.98,0,15.59,8.23,15.59,16.56h0ZM1023.14,162.31v44.59c0,9.73,5.88,17.62,18.94,17.62,20.1,0,18.94-17.62,18.94-17.62v-44.59h-17.06v46.14c0,1.06-.85,1.91-1.92,1.91s-1.91-.85-1.9-1.91v-46.14h-17,.01ZM1042.09,211.07c1.54,0,2.8-1.25,2.8-2.77v-45.13h15.25v43.32s1.1,17.12-18.05,17.12c-12.44,0-18.05-7.67-18.05-17.12v-43.32h15.28v45.13c0,1.54,1.25,2.77,2.78,2.77h-.01ZM1038.04,208.59v-44.23h-12.8v41.62c0,9.08,5.21,16.45,16.76,16.45,17.8,0,16.78-16.45,16.78-16.45v-41.62h-12.74v44.23c0,2.05-1.69,3.71-3.78,3.71h-.43c-2.09,0-3.78-1.66-3.78-3.71ZM1224.7,201.67s-3.01,22.63,19.51,22.63c3.53,0,19.48-.34,19.48-18.37,0-18.97-22.03-20.28-22.03-26.83,0-2.45.88-2.54,1.8-2.54,2.29,0,1.4,5.52,1.4,5.52h16.38s2.95-19.87-17.88-19.87c-14.29,0-18.65,9.95-18.65,16.76,0,18.5,22.03,19.88,22.03,27.18,0,1.97-.44,2.82-2.81,2.82-3.65,0-2.62-7.3-2.62-7.3h-16.62ZM1244.1,209.87c2.78,0,3.48-1.46,3.48-3.72,0-7.92-21.97-9.94-21.97-27.23,0-7.64,5.47-15.73,17.69-15.73,19.2,0,16.86,18.04,16.86,18.04h-14.21s1.15-5.52-2.57-5.52c-3.05,0-2.7,2.77-2.7,3.52,0,7.4,22.12,8.71,22.12,26.74,0,16.76-15.19,17.38-18.6,17.38-21.07,0-18.55-20.8-18.55-20.8h14.57s-.79,7.33,3.88,7.33h.01ZM1239.11,203.73h-12.28s-2.4,18.38,17.4,18.38c3.29,0,17.38.04,17.38-16.74s-22.12-18.17-22.12-26c0-2.53.68-4.99,3.95-4.99,4.56,0,3.7,5.58,3.7,5.58h11.72s2.41-15.26-15.41-15.59c-13.28-.24-16.61,9.25-16.61,15.59,0,15.37,22.08,17.47,22.08,26.38,0,3.72-2.26,4.8-4.94,4.8-5.69,0-4.85-7.4-4.85-7.4h-.02ZM1186.11,164.36c-8.5,0-15.38,6.8-15.38,15.18v27.31c0,8.39,6.89,15.18,15.38,15.18h3.19c8.5,0,15.38-6.8,15.38-15.18v-27.31c0-8.39-6.89-15.18-15.38-15.18h-3.19ZM1191.92,178.58v29.71c0,2.28-1.87,4.12-4.18,4.12s-4.14-1.86-4.13-4.12v-29.71c0-2.28,1.87-4.12,4.18-4.12s4.14,1.86,4.13,4.12ZM1151.3,224.2v-61.9h-17.23v61.9h17.23ZM1135.05,163.22h15.31v60.02h-15.31v-60.02ZM979.06,222.04h12.7v-46.64h11.24v-11.03h-35.57v11.03h11.63v46.64ZM1114.59,207.39v-28.58c0-7.98-6.6-14.45-14.75-14.45h-19.15v57.68h20.14c12.92,0,13.76-11.12,13.76-14.65ZM1097.57,212.59h-4.34v-38.4h3.59c2.64,0,4.79,2.1,4.79,4.69v29.77c0,2.18-1.8,3.95-4.03,3.95h0ZM1097.14,175.57h-2.66v35.7h2.66c1.73,0,3.13-1.37,3.13-3.06v-29.57c0-1.69-1.4-3.06-3.13-3.06h0ZM1099.25,208.59c0,1.02-.84,1.84-1.87,1.84h-1.96v-33.82h1.96c1.03,0,1.87.83,1.87,1.84v30.14h0ZM1136.44,222.04h12.7v-57.68h-12.7v57.68ZM1185.6,162.31c-9.37,0-16.96,7.49-16.96,16.74v28.42c0,9.24,7.6,16.74,16.96,16.74h4.24c9.37,0,16.96-7.49,16.96-16.74v-28.42c0-9.24-7.6-16.74-16.96-16.74h-4.24ZM1205.75,178.99v28.48c0,8.71-7.15,15.77-15.98,15.77h-4.16c-8.83,0-15.98-7.06-15.98-15.77h0v-28.48c0-8.71,7.15-15.77,15.98-15.77h4.16c8.83,0,15.98,7.06,15.98,15.77ZM930.65,222.13c3.25,0,17.23.04,17.23-16.74s-21.92-18.17-21.92-26c0-2.53.67-4.99,3.91-4.99,4.52,0,3.66,5.58,3.66,5.58h11.62s2.39-15.26-15.28-15.59c-13.18-.24-16.46,9.25-16.46,15.59,0,15.37,21.89,17.47,21.89,26.38,0,3.72-2.23,4.8-4.91,4.8-5.64,0-4.81-7.4-4.81-7.4h-12.18s-2.38,18.38,17.24,18.38h.01ZM994.04,224.2v-46.61h11.06v-15.29h-39.83v15.29h11.46v46.61h17.3ZM966.27,176.67v-13.6h38v13.6h-11.29v46.58h-15.2v-46.58h-11.51Z"/>
  <g id="Logo">
    <g id="Layer-1">
      <g id="g1">
        <circle id="circle1" class="st3" cx="811.66" cy="194.43" r="80.52"/>
      </g>
      <path id="path36-2" class="st6" d="M811.64,113.91c-16.78,0-33.71,5.2-48.17,16.01-35.6,26.6-42.92,77.1-16.32,112.7,26.6,35.6,77.09,42.92,112.7,16.32,35.6-26.6,42.92-77.09,16.32-112.7-15.79-21.14-40.01-32.3-64.54-32.33ZM811.65,114.75c24.26.01,48.23,11.06,63.86,31.99,26.33,35.24,19.09,85.2-16.15,111.53-35.24,26.33-85.2,19.09-111.54-16.15-26.33-35.24-19.09-85.2,16.15-111.53,14.32-10.69,31.07-15.85,47.66-15.84h.01ZM811.65,116.01c-16.33,0-32.82,5.06-46.91,15.6-34.69,25.92-41.81,75.06-15.89,109.75,25.92,34.69,75.06,41.81,109.75,15.89,34.69-25.92,41.81-75.06,15.89-109.75-15.38-20.6-38.96-31.48-62.84-31.49h0ZM767.78,134.5l8.08,5.46,6.98-5.21-2.29,8.71,7.49,5.54-9.26.2-2.82,8.83-3.19-8.75-9.01-.28,6.98-5.21-2.94-9.3h-.01ZM853.77,146.8l8.08,5.46,6.98-5.21-2.29,8.71,7.49,5.54-9.26.2-2.82,8.83-3.19-8.75-9.01-.28,6.98-5.21-2.94-9.3h-.01ZM809.42,147.83c14.95-.71,29.99,5.78,39.62,18.68,15.42,20.64,11.18,49.87-9.46,65.28-20.64,15.42-49.87,11.18-65.28-9.46-15.42-20.64-11.18-49.87,9.46-65.28,7.74-5.78,16.69-8.8,25.66-9.23h0ZM809.48,149.09c-8.72.42-17.44,3.36-24.96,8.98-20.09,15-24.2,43.42-9.19,63.5,15,20.09,43.42,24.2,63.5,9.19,20.09-15,24.2-43.42,9.19-63.5-9.38-12.55-24-18.86-38.54-18.18h0ZM809.51,149.93c14.28-.68,28.62,5.52,37.82,17.84,14.74,19.73,10.69,47.59-9.02,62.33-19.73,14.74-47.59,10.7-62.33-9.02-14.74-19.73-10.7-47.6,9.02-62.34,7.39-5.52,15.94-8.41,24.5-8.82h0ZM818.61,155.05l-13.86,10.36-1.74,12.05,22.48,30.08,12.05,1.74,13.81-10.32,1.75-12.13-9.05-12.12-12.94,9.67,4.28,5.74-1.8,1.34-12.97-17.36,1.8-1.34,4.63,6.2,12.94-9.67-9.32-12.49-12.05-1.75h-.01ZM818.83,155.92l11.36,1.64,8.63,11.54-11.6,8.68-4.63-6.2-3.14,2.35,13.97,18.7,3.14-2.35-4.28-5.72,11.6-8.68,8.34,11.17-1.66,11.45-13.26,9.91-11.36-1.64-22.06-29.52,1.64-11.36,13.31-9.95h0ZM819.16,157.27l-12.47,9.31-1.5,10.32,21.42,28.68,10.32,1.5,12.42-9.28,1.51-10.4-7.26-9.72-9.56,7.14,4.28,5.74-5.18,3.88-15.49-20.74,5.18-3.88,4.63,6.2,9.56-7.14-7.55-10.1-10.32-1.5h0ZM789.79,176.57l-20.87,15.59,32.77,43.87,20.87-15.59,1.7-11.82-22.67-30.34-11.82-1.72h.01ZM790.01,177.45l11.14,1.61,22.25,29.78-1.61,11.14-19.92,14.88-31.78-42.54,19.92-14.88h0ZM790.35,178.78l-18.48,13.81,30.25,40.5,18.48-13.81,1.46-10.09-21.62-28.94-10.09-1.46ZM793.79,191.49l15.49,20.74-4.94,3.7-15.49-20.74,4.94-3.7ZM793.54,193.28l-2.9,2.17,13.97,18.7,2.9-2.17-13.97-18.7ZM793.37,194.44l12.97,17.36-1.56,1.16-12.97-17.36,1.56-1.16ZM754.06,221.25l8.08,5.46,6.98-5.21-2.29,8.71,7.49,5.54-9.26.2-2.82,8.83-3.19-8.75-9.01-.28,6.98-5.21-2.94-9.3h-.01ZM841.49,235.22l8.08,5.46,6.98-5.21-2.29,8.71,7.49,5.54-9.26.2-2.82,8.83-3.19-8.75-9.01-.28,6.98-5.21-2.94-9.3h-.01Z"/>
    </g>
  </g>
</svg>